<?xml version="1.0" encoding="UTF-8"?><svg id="Layer_2" xmlns="http://www.w3.org/2000/svg" viewBox="0 0 111.15 114.12"><defs><style>.cls-1{fill:#263238;}.cls-1,.cls-2,.cls-3,.cls-4,.cls-5{stroke-width:0px;}.cls-2,.cls-3{fill:#ffc727;}.cls-3{opacity:.5;}.cls-4{opacity:.4;}.cls-4,.cls-5{fill:#fff;}.cls-5{opacity:.2;}</style></defs><g id="Bird"><path class="cls-2" d="M86.89,98.15c-.55-.68-1.46-1.08-2.33-1.05-1.03.04-1.72.6-2.46,1.24-.13.11-.13.27-.07.39,0,.12.1.23.25.21.93-.1,1.64.36,1.76,1.31.1.79-.41,1.42-.67,2.12-.07.18.14.34.3.26,1.06-.52,1.99-2.3,1.46-3.44-.02-.03-.04-.07-.05-.1.12.06.22.13.32.22.96.83.53,2.26.24,3.27-.05.19.15.41.34.3,1.33-.8,1.89-3.5.91-4.73Z"/><path class="cls-2" d="M62.65,78.11L37.73,0s33.15,6.5,43.89,27.67c10.74,21.18,2.07,46.49,2.07,46.49l-21.04,3.94Z"/><path class="cls-5" d="M62.65,78.11L37.73,0s33.15,6.5,43.89,27.67c10.74,21.18,2.07,46.49,2.07,46.49l-21.04,3.94Z"/><path class="cls-2" d="M37.74,0s0,.02,0,.03l-.02-.04h0Z"/><path class="cls-2" d="M83.69,74.17l-21.05,3.94L37.77.09c.96,2.44,21.45,54.48,33.31,58.23,11.95,3.78,14.48-18.54,14.56-19.25,3.94,17.91-1.95,35.1-1.95,35.1Z"/><path class="cls-2" d="M40.4,94.44l31.92-35.64s2.86-16.69,16.84-16.69c14.17,0,15.7,15.16,14.68,21.94,0,0-1.1,52.07-62.54,38.1l-32.42,11.97s2.69-5.79,8.58-8.58c0,0-10.87.2-17.45-2.69l40.4-8.41Z"/><path class="cls-4" d="M40.4,94.44l31.92-35.64s2.86-16.69,16.84-16.69c14.17,0,15.7,15.16,14.68,21.94,0,0-1.1,52.07-62.54,38.1l-32.42,11.97s2.69-5.79,8.58-8.58c0,0-10.87.2-17.45-2.69l40.4-8.41Z"/><path class="cls-3" d="M103.83,64.05s-1.1,52.07-62.54,38.11l-32.41,11.97s2.7-5.78,8.58-8.58c0,0-10.88.2-17.46-2.69,27.88,5.43,40.79-5.76,40.79-5.76,61.44,13.96,63.04-39.28,63.04-39.28.02-.18.06-.37.07-.57.29,2.57.2,4.98-.07,6.81Z"/><path class="cls-2" d="M73.43,65.44L2.04,25.12s-.99,37.51,17.55,52.34c18.54,14.83,45.68,7.78,45.68,7.78l8.15-19.8Z"/><path class="cls-4" d="M73.43,65.44L2.04,25.12s-.99,37.51,17.55,52.34c18.54,14.83,45.68,7.78,45.68,7.78l8.15-19.8Z"/><path class="cls-2" d="M47.19,86.86s9.23.67,18.09-1.62c0,0-9.07,3.51-18.09,1.62Z"/><path class="cls-2" d="M68.74,62.79l4.69,2.65s-.97-1.68-4.69-2.65Z"/><path class="cls-2" d="M4.41,35.41c20.18,10.2,39.86,21.29,59.28,32.86,0,0,.27.16.27.16l-.03.29c-.48,4.09-1,8.18-1.57,12.26.16-4.12.38-8.23.63-12.34,0,0,.24.45.24.45-19.96-10.61-39.64-21.71-58.82-33.68h0Z"/><path class="cls-2" d="M9.8,45.84c18,8.16,35.87,16.87,53.38,26.03-18-8.16-35.87-16.87-53.38-26.03h0Z"/><path class="cls-2" d="M12.57,53.72c16.95,6.71,33.78,13.99,50.29,21.74-16.95-6.72-33.79-13.99-50.29-21.74h0Z"/><path class="cls-2" d="M16.44,62.79c15.45,4.56,30.83,9.7,45.92,15.32-15.45-4.57-30.83-9.7-45.92-15.32h0Z"/><path class="cls-1" d="M87.61,56.1c0,.85.89,2.22,2.67,2.22s2.59-1.57,2.59-2.22c0-1.04-1.05-2.38-2.63-2.38s-2.63,1.34-2.63,2.38Z"/><path class="cls-2" d="M87.61,56.1s-9.51-2.89-9.51.13,9.51-.13,9.51-.13Z"/><path class="cls-2" d="M92.86,55.95s4.39-1.98,4.39.09-4.39-.09-4.39-.09Z"/><polygon class="cls-2" points="97.25 55.74 102.02 50.16 111.15 54.27 97.25 55.74"/><polygon class="cls-2" points="97.25 55.74 103.04 57.38 105.99 54.82 97.25 55.74"/><path class="cls-2" d="M79.43,98.32c-.55-.68-1.46-1.08-2.33-1.05-1.03.04-1.72.6-2.46,1.24-.13.11-.13.27-.07.39,0,.12.1.23.25.21.93-.1,1.64.36,1.76,1.31.1.79-.41,1.42-.67,2.12-.07.18.14.34.3.26,1.06-.52,1.99-2.3,1.46-3.44-.02-.03-.04-.07-.05-.1.12.06.22.13.32.22.96.83.53,2.26.24,3.27-.05.19.15.41.34.3,1.33-.8,1.89-3.5.91-4.73Z"/></g></svg>