<?xml version="1.0" encoding="UTF-8"?><svg id="Layer_2" xmlns="http://www.w3.org/2000/svg" xmlns:xlink="http://www.w3.org/1999/xlink" viewBox="0 0 164 170"><defs><style>.cls-1{filter:url(#drop-shadow-5);}.cls-1,.cls-2{fill:none;stroke:#fbb040;stroke-linecap:round;stroke-linejoin:round;stroke-width:3px;}.cls-3{fill:#fff200;filter:url(#drop-shadow-3);}.cls-3,.cls-4,.cls-5,.cls-6,.cls-7{stroke-width:0px;}.cls-2{filter:url(#drop-shadow-1);}.cls-4{fill:#fff89f;filter:url(#drop-shadow-4);}.cls-5{fill:#231f20;}.cls-6{fill:#fff;}.cls-7{fill:#fbb040;filter:url(#drop-shadow-2);}</style><filter id="drop-shadow-1" filterUnits="userSpaceOnUse"><feOffset dx="2" dy="1"/><feGaussianBlur result="blur" stdDeviation="1"/><feFlood flood-color="#000" flood-opacity=".15"/><feComposite in2="blur" operator="in"/><feComposite in="SourceGraphic"/></filter><filter id="drop-shadow-2" filterUnits="userSpaceOnUse"><feOffset dx="2" dy="1"/><feGaussianBlur result="blur-2" stdDeviation="1"/><feFlood flood-color="#000" flood-opacity=".15"/><feComposite in2="blur-2" operator="in"/><feComposite in="SourceGraphic"/></filter><filter id="drop-shadow-3" filterUnits="userSpaceOnUse"><feOffset dx="1" dy="1"/><feGaussianBlur result="blur-3" stdDeviation="1"/><feFlood flood-color="#000" flood-opacity=".15"/><feComposite in2="blur-3" operator="in"/><feComposite in="SourceGraphic"/></filter><filter id="drop-shadow-4" filterUnits="userSpaceOnUse"><feOffset dx="1" dy="1"/><feGaussianBlur result="blur-4" stdDeviation="1"/><feFlood flood-color="#000" flood-opacity=".15"/><feComposite in2="blur-4" operator="in"/><feComposite in="SourceGraphic"/></filter><filter id="drop-shadow-5" filterUnits="userSpaceOnUse"><feOffset dx="2" dy="1"/><feGaussianBlur result="blur-5" stdDeviation="1"/><feFlood flood-color="#000" flood-opacity=".15"/><feComposite in2="blur-5" operator="in"/><feComposite in="SourceGraphic"/></filter></defs><g id="objects"><polyline class="cls-2" points="65.68 115.56 64.26 143.18 53.26 143.18"/><polygon class="cls-7" points="10.34 25.12 1.91 35.57 14.44 38.31 19.44 29.48 10.34 25.12"/><path class="cls-3" d="M107.51,89.53c-.21-.31-.42-.62-.64-.92l-5.37-7.38-.02-.03L50.94,11.75C43.96,2.16,30.52.04,20.92,7.02l-1.75,1.27c-9.6,6.98-11.71,20.42-4.73,30.02l10.61,14.58s3.37,5.6,1.86,13.07h0c-3.98,14-1.66,29.62,7.69,42.21,10.78,14.52,28.12,21.27,44.87,19.22h0s.09,0,.27-.03c.12-.02.25-.03.37-.05,3.92-.51,24.82-2.93,30.86,2.73l35.28,35.72.03-9.78,13.03,5.19-51.81-71.62Z"/><path class="cls-4" d="M126.91,114.57l-45.98-64c-.23-.33-.46-.66-.7-.98-7.72-10.18-22.24-12.18-32.42-4.45-10.18,7.72-12.18,22.24-4.45,32.43,2.62,3.45,6.02,5.96,9.76,7.47h0s.13.06.13.06c.02,0,.03.01.04.02l73.62,29.46Z"/><path class="cls-5" d="M27.64,20.58c0-1.65-1.33-2.98-2.98-2.98s-2.98,1.33-2.98,2.98,1.34,2.98,2.98,2.98,2.98-1.33,2.98-2.98Z"/><path class="cls-6" d="M25.27,20.61c1.61,0,1.61-2.5,0-2.5s-1.61,2.5,0,2.5h0Z"/><polyline class="cls-1" points="54.53 115.56 44.73 143.18 33.73 143.18"/></g></svg>