<?xml version="1.0" encoding="UTF-8"?><svg xmlns="http://www.w3.org/2000/svg" viewBox="0 0 4397.32 964.31"><defs><style>.cls-1{fill:#263238;}.cls-1,.cls-2,.cls-3,.cls-4,.cls-5,.cls-6,.cls-7,.cls-8,.cls-9,.cls-10,.cls-11,.cls-12,.cls-13,.cls-14{stroke-width:0px;}.cls-2{fill:#dbdbdb;}.cls-3{fill:#455a64;}.cls-4,.cls-13,.cls-14{fill:#000;}.cls-5{opacity:.3;}.cls-5,.cls-9,.cls-11,.cls-12{fill:#fff;}.cls-6,.cls-7{fill:#ffc727;}.cls-7{opacity:.5;}.cls-8{fill:#263238;}.cls-15,.cls-13{opacity:.1;}.cls-9{opacity:.4;}.cls-10{fill:#ebebeb;}.cls-11,.cls-14{opacity:.2;}</style></defs><g id="Background_Complete"><path class="cls-2" d="M405.79,895.56c-38.4.66-81.09.65-119.51,0,38.43-.65,81.1-.66,119.51,0h0Z"/><path class="cls-2" d="M434.45,911.75c-39.56.66-83.55.65-123.14,0,39.6-.65,83.57-.66,123.14,0h0Z"/><path class="cls-2" d="M374.9,895.56c.68,5.39.69,10.8,0,16.19-.69-5.39-.68-10.8,0-16.19h0Z"/><path class="cls-2" d="M314.6,895.56c.68,5.39.69,10.8,0,16.19-.69-5.39-.68-10.8,0-16.19h0Z"/><path class="cls-2" d="M405.06,911.68c.68,5.39.69,10.8,0,16.19-.69-5.39-.68-10.8,0-16.19h0Z"/><path class="cls-2" d="M344.66,911.68c.68,5.39.69,10.8,0,16.19-.69-5.39-.68-10.8,0-16.19h0Z"/><path class="cls-2" d="M321.56,704.72c-39.56.66-83.55.65-123.14,0,39.6-.65,83.57-.66,123.14,0h0Z"/><path class="cls-2" d="M278.93,720.92c-26.64.66-56.11.66-82.76,0,26.65-.66,56.12-.66,82.76,0h0Z"/><path class="cls-2" d="M235.38,688.53c.68,5.39.69,10.8,0,16.19-.69-5.39-.68-10.8,0-16.19h0Z"/><path class="cls-2" d="M265.52,704.72c.68,5.39.69,10.8,0,16.19-.69-5.39-.68-10.8,0-16.19h0Z"/><path class="cls-2" d="M205.24,704.72c.68,5.39.69,10.8,0,16.19-.69-5.39-.68-10.8,0-16.19h0Z"/><path class="cls-2" d="M279.79,834.28c-17.03.67-34.19.67-51.22,0,17.04-.67,34.19-.67,51.22,0h0Z"/><path class="cls-2" d="M291.77,850.47c-26.64.66-56.11.66-82.76,0,26.65-.66,56.12-.66,82.76,0h0Z"/><path class="cls-2" d="M265.53,818.08c.68,5.39.69,10.8,0,16.19-.69-5.39-.68-10.8,0-16.19h0Z"/><path class="cls-2" d="M235.39,834.28c.68,5.39.69,10.8,0,16.19-.69-5.39-.68-10.8,0-16.19h0Z"/><path class="cls-10" d="M416.91,315.83c8.39,0,149.61.93,158.48.65.64-.02.98-.96.35-1.27-5.59-2.77-11.94-2.21-17.75-4.17-3.42-1.15-5.52-3.39-7.9-5.95-2.05-2.22-4.43-3.92-7.35-4.8-2.58-.77-5.38-.87-8-.25-2.87.68-5.35,2.32-8.09,3.36-6.78,2.56-13.38.13-18.22-4.89-4-4.14-7.92-8.04-13.35-10.27-4.55-1.87-9.59-2.26-14.15-.2-5.18,2.35-8.73,7.07-13.6,9.9-5.77,3.37-12.67,2.57-19.03,3.59-6.39,1.02-11.26,6.38-16.85,9.47-1.91,1.06-3.86,1.94-6.09,1.89-1.25-.03-2.47-.37-3.71-.52-1.92-.24-3.75-.18-5.04,1.42-.31.39-.25,2.05.3,2.05Z"/><path class="cls-10" d="M196.51,167.5c8.39,0,149.61.93,158.48.65.64-.02.98-.96.35-1.27-5.59-2.77-11.94-2.21-17.75-4.17-3.42-1.15-5.52-3.39-7.9-5.95-2.05-2.22-4.43-3.92-7.35-4.8-2.58-.77-5.38-.87-8-.25-2.87.68-5.35,2.32-8.09,3.36-6.78,2.56-13.38.13-18.22-4.89-4-4.14-7.92-8.04-13.35-10.27-4.55-1.87-9.59-2.26-14.15-.2-5.18,2.35-8.73,7.07-13.6,9.9-5.77,3.37-12.67,2.57-19.03,3.59-6.39,1.02-11.26,6.38-16.85,9.47-1.91,1.06-3.86,1.94-6.09,1.89-1.25-.03-2.47-.37-3.71-.52-1.92-.24-3.75-.18-5.04,1.42-.31.39-.25,2.05.3,2.05Z"/><path class="cls-10" d="M388.18,447.57c6.13,0,109.23.68,115.71.47.47-.01.72-.7.25-.93-4.08-2.02-8.72-1.62-12.96-3.05-2.5-.84-4.03-2.47-5.76-4.35-1.5-1.62-3.23-2.86-5.37-3.5-1.89-.57-3.92-.64-5.84-.18-2.09.5-3.91,1.7-5.9,2.45-4.95,1.87-9.77.09-13.3-3.57-2.92-3.02-5.78-5.87-9.75-7.5-3.32-1.36-7-1.65-10.33-.14-3.78,1.71-6.38,5.16-9.93,7.23-4.21,2.46-9.25,1.88-13.9,2.62-4.66.75-8.22,4.66-12.3,6.92-1.39.77-2.82,1.42-4.45,1.38-.91-.02-1.81-.27-2.71-.38-1.4-.17-2.74-.13-3.68,1.04-.23.29-.18,1.5.22,1.5Z"/><path class="cls-10" d="M518.37,366.71c6.13,0,109.23.68,115.71.47.47-.01.72-.7.25-.93-4.08-2.02-8.72-1.62-12.96-3.05-2.5-.84-4.03-2.47-5.76-4.35-1.5-1.62-3.23-2.86-5.36-3.5-1.89-.57-3.93-.64-5.84-.18-2.09.5-3.91,1.7-5.9,2.45-4.95,1.87-9.77.09-13.3-3.57-2.92-3.02-5.78-5.87-9.75-7.5-3.32-1.36-7-1.65-10.33-.14-3.78,1.71-6.38,5.16-9.93,7.23-4.21,2.46-9.25,1.88-13.9,2.62-4.66.75-8.22,4.66-12.3,6.92-1.39.77-2.82,1.42-4.45,1.38-.91-.02-1.81-.27-2.71-.38-1.4-.17-2.74-.13-3.68,1.04-.23.29-.18,1.5.22,1.5Z"/><path class="cls-10" d="M2198.32,51.05c8.39,0,149.61.93,158.48.65.64-.02.98-.96.35-1.27-5.59-2.77-11.94-2.21-17.75-4.17-3.42-1.15-5.52-3.39-7.9-5.95-2.05-2.22-4.43-3.92-7.35-4.8-2.58-.77-5.38-.87-8-.25-2.87.68-5.35,2.32-8.09,3.36-6.78,2.56-13.38.13-18.22-4.89-4-4.14-7.92-8.04-13.35-10.27-4.55-1.87-9.59-2.26-14.15-.2-5.18,2.35-8.73,7.07-13.6,9.9-5.77,3.37-12.67,2.57-19.03,3.59-6.39,1.02-11.26,6.38-16.85,9.47-1.91,1.06-3.86,1.94-6.09,1.89-1.25-.03-2.47-.37-3.71-.52-1.92-.24-3.75-.18-5.04,1.42-.31.39-.25,2.05.3,2.05Z"/><path class="cls-10" d="M2169.6,182.8c6.13,0,109.23.68,115.71.47.47-.01.72-.7.25-.93-4.08-2.02-8.72-1.62-12.96-3.05-2.5-.84-4.03-2.47-5.76-4.35-1.5-1.62-3.23-2.86-5.37-3.5-1.89-.57-3.92-.64-5.84-.18-2.09.5-3.91,1.7-5.9,2.45-4.95,1.87-9.77.09-13.3-3.57-2.92-3.02-5.78-5.87-9.75-7.5-3.32-1.36-7-1.65-10.33-.14-3.78,1.71-6.38,5.16-9.93,7.23-4.21,2.46-9.25,1.88-13.9,2.62-4.66.75-8.22,4.66-12.3,6.92-1.39.77-2.82,1.42-4.45,1.38-.91-.02-1.81-.27-2.71-.38-1.4-.17-2.74-.13-3.68,1.04-.23.29-.18,1.5.22,1.5Z"/><path class="cls-10" d="M2492.17,381.35c6.13,0,109.23.68,115.71.47.47-.01.72-.7.25-.93-4.08-2.02-8.72-1.62-12.96-3.05-2.5-.84-4.03-2.47-5.76-4.35-1.5-1.62-3.23-2.86-5.37-3.5-1.89-.57-3.92-.64-5.84-.18-2.09.5-3.91,1.7-5.9,2.45-4.95,1.87-9.77.09-13.3-3.57-2.92-3.02-5.78-5.87-9.75-7.5-3.32-1.36-7-1.65-10.33-.14-3.78,1.71-6.38,5.16-9.93,7.23-4.21,2.46-9.25,1.88-13.9,2.62-4.66.74-8.22,4.66-12.3,6.92-1.39.77-2.82,1.42-4.45,1.38-.91-.02-1.81-.27-2.71-.38-1.4-.17-2.74-.13-3.68,1.04-.23.29-.18,1.5.22,1.5Z"/><path class="cls-10" d="M2299.79,101.93c6.13,0,109.23.68,115.71.47.47-.01.72-.7.25-.93-4.08-2.02-8.72-1.62-12.96-3.05-2.5-.84-4.03-2.47-5.76-4.35-1.5-1.62-3.23-2.86-5.37-3.5-1.89-.57-3.93-.64-5.84-.18-2.09.5-3.91,1.7-5.9,2.45-4.95,1.87-9.77.09-13.3-3.57-2.92-3.02-5.78-5.87-9.75-7.5-3.32-1.36-7-1.65-10.33-.14-3.78,1.71-6.38,5.16-9.93,7.23-4.21,2.46-9.25,1.88-13.9,2.62-4.66.75-8.22,4.66-12.3,6.92-1.39.77-2.82,1.42-4.45,1.38-.91-.02-1.81-.27-2.71-.38-1.4-.17-2.74-.13-3.68,1.04-.23.29-.18,1.5.22,1.5Z"/><path class="cls-10" d="M1240.26,420.34c8.39,0,149.61.93,158.48.65.64-.02.98-.96.35-1.27-5.59-2.77-11.94-2.21-17.75-4.17-3.42-1.15-5.52-3.39-7.9-5.95-2.05-2.22-4.43-3.92-7.35-4.8-2.58-.77-5.38-.87-8-.25-2.87.68-5.35,2.32-8.09,3.36-6.78,2.56-13.38.13-18.22-4.89-4-4.14-7.92-8.04-13.35-10.27-4.55-1.87-9.59-2.26-14.15-.2-5.18,2.35-8.73,7.07-13.6,9.9-5.77,3.37-12.67,2.57-19.03,3.59-6.39,1.02-11.26,6.38-16.85,9.47-1.91,1.06-3.86,1.94-6.09,1.89-1.25-.03-2.47-.37-3.71-.52-1.92-.24-3.75-.18-5.04,1.42-.31.39-.25,2.05.3,2.05Z"/><path class="cls-10" d="M1211.53,552.09c6.13,0,109.23.68,115.71.47.47-.01.72-.7.25-.93-4.08-2.02-8.72-1.62-12.96-3.05-2.5-.84-4.03-2.47-5.76-4.35-1.5-1.62-3.23-2.86-5.37-3.5-1.89-.57-3.92-.64-5.84-.18-2.09.5-3.91,1.7-5.9,2.45-4.95,1.87-9.77.09-13.3-3.57-2.92-3.02-5.78-5.87-9.75-7.5-3.32-1.36-7-1.65-10.33-.14-3.78,1.71-6.38,5.16-9.93,7.23-4.21,2.46-9.25,1.88-13.9,2.62-4.66.75-8.22,4.66-12.3,6.92-1.39.77-2.82,1.42-4.45,1.38-.91-.02-1.81-.27-2.71-.38-1.4-.17-2.74-.13-3.68,1.04-.23.29-.18,1.5.22,1.5Z"/><path class="cls-10" d="M1534.11,750.64c6.13,0,109.23.68,115.71.47.47-.01.72-.7.25-.93-4.08-2.02-8.72-1.62-12.96-3.05-2.5-.84-4.03-2.47-5.76-4.35-1.5-1.62-3.23-2.86-5.37-3.5-1.89-.57-3.92-.64-5.84-.18-2.09.5-3.91,1.7-5.9,2.45-4.95,1.87-9.77.09-13.3-3.57-2.92-3.02-5.78-5.87-9.75-7.5-3.32-1.36-7-1.65-10.33-.14-3.78,1.71-6.38,5.16-9.93,7.23-4.21,2.46-9.25,1.88-13.9,2.62-4.66.74-8.22,4.66-12.3,6.92-1.39.77-2.82,1.42-4.45,1.38-.91-.02-1.81-.27-2.71-.38-1.4-.17-2.74-.13-3.68,1.04-.23.29-.18,1.5.22,1.5Z"/><path class="cls-10" d="M1341.73,471.22c6.13,0,109.23.68,115.71.47.47-.01.72-.7.25-.93-4.08-2.02-8.72-1.62-12.96-3.05-2.5-.84-4.03-2.47-5.76-4.35-1.5-1.62-3.23-2.86-5.37-3.5-1.89-.57-3.93-.64-5.84-.18-2.09.5-3.91,1.7-5.9,2.45-4.95,1.87-9.77.09-13.3-3.57-2.92-3.02-5.78-5.87-9.75-7.5-3.32-1.36-7-1.65-10.33-.14-3.78,1.71-6.38,5.16-9.93,7.23-4.21,2.46-9.25,1.88-13.9,2.62-4.66.75-8.22,4.66-12.3,6.92-1.39.77-2.82,1.42-4.45,1.38-.91-.02-1.81-.27-2.71-.38-1.4-.17-2.74-.13-3.68,1.04-.23.29-.18,1.5.22,1.5Z"/><path class="cls-10" d="M882.58,89.42c8.39,0,149.61.93,158.48.65.64-.02.98-.96.35-1.27-5.59-2.77-11.94-2.21-17.75-4.17-3.42-1.15-5.52-3.39-7.9-5.95-2.05-2.22-4.43-3.92-7.35-4.8-2.58-.77-5.38-.87-8-.25-2.87.68-5.35,2.32-8.09,3.36-6.78,2.56-13.38.13-18.22-4.89-4-4.14-7.92-8.04-13.35-10.27-4.55-1.87-9.59-2.26-14.15-.2-5.18,2.35-8.73,7.07-13.6,9.9-5.77,3.37-12.67,2.57-19.03,3.59-6.39,1.02-11.26,6.38-16.85,9.47-1.91,1.06-3.86,1.94-6.09,1.89-1.25-.03-2.47-.37-3.71-.52-1.92-.24-3.75-.18-5.04,1.42-.31.39-.25,2.05.3,2.05Z"/><path class="cls-10" d="M853.85,221.17c6.13,0,109.23.68,115.71.47.47-.01.72-.7.25-.93-4.08-2.02-8.72-1.62-12.96-3.05-2.5-.84-4.03-2.47-5.76-4.35-1.5-1.62-3.23-2.86-5.37-3.5-1.89-.57-3.92-.64-5.84-.18-2.09.5-3.91,1.7-5.9,2.45-4.95,1.87-9.77.09-13.3-3.57-2.92-3.02-5.78-5.87-9.75-7.5-3.32-1.36-7-1.65-10.33-.14-3.78,1.71-6.38,5.16-9.93,7.23-4.21,2.46-9.25,1.88-13.9,2.62-4.66.75-8.22,4.66-12.3,6.92-1.39.77-2.82,1.42-4.45,1.38-.91-.02-1.81-.27-2.71-.38-1.4-.17-2.74-.13-3.68,1.04-.23.29-.18,1.5.22,1.5Z"/><path class="cls-10" d="M984.05,140.3c6.13,0,109.23.68,115.71.47.47-.01.72-.7.25-.93-4.08-2.02-8.72-1.62-12.96-3.05-2.5-.84-4.03-2.47-5.76-4.35-1.5-1.62-3.23-2.86-5.36-3.5-1.89-.57-3.93-.64-5.84-.18-2.09.5-3.91,1.7-5.9,2.45-4.95,1.87-9.77.09-13.3-3.57-2.92-3.02-5.78-5.87-9.75-7.5-3.32-1.36-7-1.65-10.33-.14-3.78,1.71-6.38,5.16-9.93,7.23-4.21,2.46-9.25,1.88-13.9,2.62-4.66.75-8.22,4.66-12.3,6.92-1.39.77-2.82,1.42-4.45,1.38-.91-.02-1.81-.27-2.71-.38-1.4-.17-2.74-.13-3.68,1.04-.23.29-.18,1.5.22,1.5Z"/><path class="cls-10" d="M1269.81,204.74c6.13,0,109.23.68,115.71.47.47-.01.72-.7.25-.93-4.08-2.02-8.72-1.62-12.96-3.05-2.5-.84-4.03-2.47-5.76-4.35-1.5-1.62-3.23-2.86-5.36-3.5-1.89-.57-3.93-.64-5.84-.18-2.09.5-3.91,1.7-5.9,2.45-4.95,1.87-9.77.09-13.3-3.57-2.92-3.02-5.78-5.87-9.75-7.5-3.32-1.36-7-1.65-10.33-.14-3.78,1.71-6.38,5.16-9.93,7.23-4.21,2.46-9.25,1.88-13.9,2.62-4.66.75-8.22,4.66-12.3,6.92-1.39.77-2.82,1.42-4.45,1.38-.91-.02-1.81-.27-2.71-.38-1.4-.17-2.74-.13-3.68,1.04-.23.29-.18,1.5.22,1.5Z"/><path class="cls-10" d="M1930.89,180.47c-35.88,0-65.06-29.19-65.06-65.06s29.19-65.06,65.06-65.06,65.06,29.19,65.06,65.06-29.19,65.06-65.06,65.06ZM1930.89,50.93c-35.55,0-64.48,28.92-64.48,64.48s28.92,64.48,64.48,64.48,64.48-28.93,64.48-64.48-28.93-64.48-64.48-64.48Z"/><path class="cls-10" d="M1930.89,173.42c-31.99,0-58.01-26.02-58.01-58.01s26.02-58.01,58.01-58.01,58.01,26.02,58.01,58.01-26.02,58.01-58.01,58.01ZM1930.89,57.99c-31.66,0-57.43,25.76-57.43,57.43s25.76,57.43,57.43,57.43,57.43-25.76,57.43-57.43-25.76-57.43-57.43-57.43Z"/><rect class="cls-10" x="1892.49" y="15.73" width=".58" height="10.73" transform="translate(129.92 710.58) rotate(-22)"/><rect class="cls-10" x="1899.6" y="29.84" width=".58" height="17.7" transform="translate(123.86 714.54) rotate(-22)"/><rect class="cls-10" x="1836.96" y="70.3" width=".58" height="10.73" transform="translate(1049.73 1737.3) rotate(-67)"/><rect class="cls-10" x="1854.43" y="74.23" width=".58" height="17.7" transform="translate(1053.56 1757.9) rotate(-67)"/><rect class="cls-10" x="1831.21" y="153.23" width="10.73" height=".58" transform="translate(76.23 699.19) rotate(-22)"/><rect class="cls-10" x="1845.32" y="146.12" width="17.7" height=".58" transform="translate(80.17 705.25) rotate(-22)"/><rect class="cls-10" x="1885.78" y="208.75" width="10.73" height=".58" transform="translate(959.78 1868.17) rotate(-67)"/><rect class="cls-10" x="1889.71" y="191.29" width="17.7" height=".58" transform="translate(980.39 1864.36) rotate(-67)"/><rect class="cls-10" x="1968.7" y="204.36" width=".58" height="10.73" transform="translate(64.81 752.86) rotate(-22)"/><rect class="cls-10" x="1961.6" y="183.28" width=".58" height="17.7" transform="translate(70.89 748.94) rotate(-22)"/><rect class="cls-10" x="2024.23" y="149.79" width=".58" height="10.73" transform="translate(1090.68 1958.13) rotate(-67)"/><rect class="cls-10" x="2006.77" y="138.89" width=".58" height="17.7" transform="translate(1086.86 1937.53) rotate(-67)"/><rect class="cls-10" x="2019.84" y="77.01" width="10.73" height=".58" transform="translate(118.51 764.28) rotate(-22)"/><rect class="cls-10" x="1998.76" y="84.12" width="17.7" height=".58" transform="translate(114.57 758.22) rotate(-22)"/><rect class="cls-10" x="1965.27" y="21.48" width="10.73" height=".58" transform="translate(1180.6 1827.25) rotate(-67)"/><rect class="cls-10" x="1954.37" y="38.95" width="17.7" height=".58" transform="translate(1160.01 1831.07) rotate(-67)"/><rect class="cls-10" x="1930.6" width=".58" height="26.4"/><rect class="cls-10" x="1930.6" y="32.35" width=".58" height="9.17"/><rect class="cls-10" x="1858.32" y="29.94" width=".58" height="26.4" transform="translate(513.87 1326.87) rotate(-45)"/><rect class="cls-10" x="1875.1" y="55.33" width=".58" height="9.17" transform="translate(507.13 1343.88) rotate(-45.01)"/><rect class="cls-10" x="1815.48" y="115.12" width="26.4" height=".58"/><rect class="cls-10" x="1847.83" y="115.12" width="9.17" height=".58"/><rect class="cls-10" x="1845.42" y="187.4" width="26.4" height=".58" transform="translate(411.66 1369.21) rotate(-45)"/><rect class="cls-10" x="1870.81" y="170.61" width="9.17" height=".58" transform="translate(428.25 1375.93) rotate(-44.99)"/><rect class="cls-10" x="1930.6" y="204.43" width=".58" height="26.4"/><rect class="cls-10" x="1930.6" y="189.31" width=".58" height="9.17"/><rect class="cls-10" x="2002.87" y="174.49" width=".58" height="26.4" transform="translate(454 1471.42) rotate(-45)"/><rect class="cls-10" x="1986.09" y="166.32" width=".58" height="9.17" transform="translate(461.16 1454.89) rotate(-45.01)"/><rect class="cls-10" x="2019.91" y="115.12" width="26.4" height=".58"/><rect class="cls-10" x="2004.79" y="115.12" width="9.17" height=".58"/><rect class="cls-10" x="1989.97" y="42.84" width="26.4" height=".58" transform="translate(556.21 1429.09) rotate(-45)"/><rect class="cls-10" x="1981.8" y="59.62" width="9.17" height=".58" transform="translate(539.21 1421.9) rotate(-44.99)"/><path class="cls-10" d="M1932.22,115.41c0,.73-.6,1.33-1.33,1.33s-1.33-.6-1.33-1.33.6-1.33,1.33-1.33,1.33.6,1.33,1.33Z"/><path class="cls-10" d="M1884.88,556.21c8.39,0,149.61.93,158.48.65.64-.02.98-.96.35-1.27-5.59-2.77-11.94-2.21-17.75-4.17-3.42-1.15-5.52-3.39-7.9-5.95-2.05-2.22-4.43-3.92-7.35-4.8-2.58-.77-5.38-.87-8-.25-2.87.68-5.35,2.32-8.09,3.36-6.78,2.56-13.38.13-18.22-4.89-4-4.14-7.92-8.04-13.35-10.27-4.55-1.87-9.59-2.26-14.15-.2-5.18,2.35-8.73,7.07-13.6,9.9-5.77,3.37-12.67,2.57-19.03,3.59-6.39,1.02-11.26,6.38-16.85,9.47-1.91,1.06-3.86,1.94-6.09,1.89-1.25-.03-2.47-.37-3.71-.52-1.92-.24-3.75-.18-5.04,1.42-.31.39-.25,2.05.3,2.05Z"/><path class="cls-10" d="M1856.15,687.96c6.13,0,109.23.68,115.71.47.47-.01.72-.7.25-.93-4.08-2.02-8.72-1.62-12.96-3.05-2.5-.84-4.03-2.47-5.76-4.35-1.5-1.62-3.23-2.86-5.37-3.5-1.89-.57-3.92-.64-5.84-.18-2.09.5-3.91,1.7-5.9,2.45-4.95,1.87-9.77.09-13.3-3.57-2.92-3.02-5.78-5.87-9.75-7.5-3.32-1.36-7-1.65-10.33-.14-3.78,1.71-6.38,5.16-9.93,7.23-4.21,2.46-9.25,1.88-13.9,2.62-4.66.75-8.22,4.66-12.3,6.92-1.39.77-2.82,1.42-4.45,1.38-.91-.02-1.81-.27-2.71-.38-1.4-.17-2.74-.13-3.68,1.04-.23.29-.18,1.5.22,1.5Z"/><path class="cls-10" d="M2178.72,886.52c6.13,0,109.23.68,115.71.47.47-.01.72-.7.25-.93-4.08-2.02-8.72-1.62-12.96-3.05-2.5-.84-4.03-2.47-5.76-4.35-1.5-1.62-3.23-2.86-5.37-3.5-1.89-.57-3.92-.64-5.84-.18-2.09.5-3.91,1.7-5.9,2.45-4.95,1.87-9.77.09-13.3-3.57-2.92-3.02-5.78-5.87-9.75-7.5-3.32-1.36-7-1.65-10.33-.14-3.78,1.71-6.38,5.16-9.93,7.23-4.21,2.46-9.25,1.88-13.9,2.62-4.66.74-8.22,4.66-12.3,6.92-1.39.77-2.82,1.42-4.45,1.38-.91-.02-1.81-.27-2.71-.38-1.4-.17-2.74-.13-3.68,1.04-.23.29-.18,1.5.22,1.5Z"/><path class="cls-10" d="M1986.34,607.09c6.13,0,109.23.68,115.71.47.47-.01.72-.7.25-.93-4.08-2.02-8.72-1.62-12.96-3.05-2.5-.84-4.03-2.47-5.76-4.35-1.5-1.62-3.23-2.86-5.37-3.5-1.89-.57-3.93-.64-5.84-.18-2.09.5-3.91,1.7-5.9,2.45-4.95,1.87-9.77.09-13.3-3.57-2.92-3.02-5.78-5.87-9.75-7.5-3.32-1.36-7-1.65-10.33-.14-3.78,1.71-6.38,5.16-9.93,7.23-4.21,2.46-9.25,1.88-13.9,2.62-4.66.75-8.22,4.66-12.3,6.92-1.39.77-2.82,1.42-4.45,1.38-.91-.02-1.81-.27-2.71-.38-1.4-.17-2.74-.13-3.68,1.04-.23.29-.18,1.5.22,1.5Z"/><path class="cls-10" d="M2858.33,250.05c8.39,0,149.61.93,158.48.65.64-.02.98-.96.35-1.27-5.59-2.77-11.94-2.21-17.75-4.17-3.42-1.15-5.52-3.39-7.9-5.95-2.05-2.22-4.43-3.92-7.35-4.8-2.58-.77-5.38-.87-8-.25-2.87.68-5.35,2.32-8.09,3.36-6.78,2.56-13.38.13-18.22-4.89-4-4.14-7.92-8.04-13.35-10.27-4.55-1.87-9.59-2.26-14.15-.2-5.18,2.35-8.73,7.07-13.6,9.9-5.77,3.37-12.67,2.57-19.03,3.59-6.39,1.02-11.26,6.38-16.85,9.47-1.91,1.06-3.86,1.94-6.09,1.89-1.25-.03-2.47-.37-3.71-.52-1.92-.24-3.75-.18-5.04,1.42-.31.39-.25,2.05.3,2.05Z"/><path class="cls-10" d="M2829.6,381.79c6.13,0,109.23.68,115.71.47.47-.01.72-.7.25-.93-4.08-2.02-8.72-1.62-12.96-3.05-2.5-.84-4.03-2.47-5.76-4.35-1.5-1.62-3.23-2.86-5.37-3.5-1.89-.57-3.92-.64-5.84-.18-2.09.5-3.91,1.7-5.9,2.45-4.95,1.87-9.77.09-13.3-3.57-2.92-3.02-5.78-5.87-9.75-7.5-3.32-1.36-7-1.65-10.33-.14-3.78,1.71-6.38,5.16-9.93,7.23-4.21,2.46-9.25,1.88-13.9,2.62-4.66.75-8.22,4.66-12.3,6.92-1.39.77-2.82,1.42-4.45,1.38-.91-.02-1.81-.27-2.71-.38-1.4-.17-2.74-.13-3.68,1.04-.23.29-.18,1.5.22,1.5Z"/><path class="cls-10" d="M2959.8,300.93c6.13,0,109.23.68,115.71.47.47-.01.72-.7.25-.93-4.08-2.02-8.72-1.62-12.96-3.05-2.5-.84-4.03-2.47-5.76-4.35-1.5-1.62-3.23-2.86-5.36-3.5-1.89-.57-3.93-.64-5.84-.18-2.09.5-3.91,1.7-5.9,2.45-4.95,1.87-9.77.09-13.3-3.57-2.92-3.02-5.78-5.87-9.75-7.5-3.32-1.36-7-1.65-10.33-.14-3.78,1.71-6.38,5.16-9.93,7.23-4.21,2.46-9.25,1.88-13.9,2.62-4.66.75-8.22,4.66-12.3,6.92-1.39.77-2.82,1.42-4.45,1.38-.91-.02-1.81-.27-2.71-.38-1.4-.17-2.74-.13-3.68,1.04-.23.29-.18,1.5.22,1.5Z"/><path class="cls-10" d="M3245.56,365.36c6.13,0,109.23.68,115.71.47.47-.01.72-.7.25-.93-4.08-2.02-8.72-1.62-12.96-3.05-2.5-.84-4.03-2.47-5.76-4.35-1.5-1.62-3.23-2.86-5.36-3.5-1.89-.57-3.93-.64-5.84-.18-2.09.5-3.91,1.7-5.9,2.45-4.95,1.87-9.77.09-13.3-3.57-2.92-3.02-5.78-5.87-9.75-7.5-3.32-1.36-7-1.65-10.33-.14-3.78,1.71-6.38,5.16-9.93,7.23-4.21,2.46-9.25,1.88-13.9,2.62-4.66.75-8.22,4.66-12.3,6.92-1.39.77-2.82,1.42-4.45,1.38-.91-.02-1.81-.27-2.71-.38-1.4-.17-2.74-.13-3.68,1.04-.23.29-.18,1.5.22,1.5Z"/><path class="cls-10" d="M2871.22,754.64c8.39,0,149.61.93,158.48.65.64-.02.98-.96.35-1.27-5.59-2.77-11.94-2.21-17.75-4.17-3.42-1.15-5.52-3.39-7.9-5.95-2.05-2.22-4.43-3.92-7.35-4.8-2.58-.77-5.38-.87-8-.25-2.87.68-5.35,2.32-8.09,3.36-6.78,2.56-13.38.13-18.22-4.89-4-4.14-7.92-8.04-13.35-10.27-4.55-1.87-9.59-2.26-14.15-.2-5.18,2.35-8.73,7.07-13.6,9.9-5.77,3.37-12.67,2.57-19.03,3.59-6.39,1.02-11.26,6.38-16.85,9.47-1.91,1.06-3.86,1.94-6.09,1.89-1.25-.03-2.47-.37-3.71-.52-1.92-.24-3.75-.18-5.04,1.42-.31.39-.25,2.05.3,2.05Z"/><path class="cls-10" d="M2842.49,886.39c6.13,0,109.23.68,115.71.47.47-.01.72-.7.25-.93-4.08-2.02-8.72-1.62-12.96-3.05-2.5-.84-4.03-2.47-5.76-4.35-1.5-1.62-3.23-2.86-5.37-3.5-1.89-.57-3.92-.64-5.84-.18-2.09.5-3.91,1.7-5.9,2.45-4.95,1.87-9.77.09-13.3-3.57-2.92-3.02-5.78-5.87-9.75-7.5-3.32-1.36-7-1.65-10.33-.14-3.78,1.71-6.38,5.16-9.93,7.23-4.21,2.46-9.25,1.88-13.9,2.62-4.66.75-8.22,4.66-12.3,6.92-1.39.77-2.82,1.42-4.45,1.38-.91-.02-1.81-.27-2.71-.38-1.4-.17-2.74-.13-3.68,1.04-.23.29-.18,1.5.22,1.5Z"/><path class="cls-10" d="M2972.69,805.52c6.13,0,109.23.68,115.71.47.47-.01.72-.7.25-.93-4.08-2.02-8.72-1.62-12.96-3.05-2.5-.84-4.03-2.47-5.76-4.35-1.5-1.62-3.23-2.86-5.36-3.5-1.89-.57-3.93-.64-5.84-.18-2.09.5-3.91,1.7-5.9,2.45-4.95,1.87-9.77.09-13.3-3.57-2.92-3.02-5.78-5.87-9.75-7.5-3.32-1.36-7-1.65-10.33-.14-3.78,1.71-6.38,5.16-9.93,7.23-4.21,2.46-9.25,1.88-13.9,2.62-4.66.75-8.22,4.66-12.3,6.92-1.39.77-2.82,1.42-4.45,1.38-.91-.02-1.81-.27-2.71-.38-1.4-.17-2.74-.13-3.68,1.04-.23.29-.18,1.5.22,1.5Z"/><path class="cls-10" d="M3258.45,869.96c6.13,0,109.23.68,115.71.47.47-.01.72-.7.25-.93-4.08-2.02-8.72-1.62-12.96-3.05-2.5-.84-4.03-2.47-5.76-4.35-1.5-1.62-3.23-2.86-5.36-3.5-1.89-.57-3.93-.64-5.84-.18-2.09.5-3.91,1.7-5.9,2.45-4.95,1.87-9.77.09-13.3-3.57-2.92-3.02-5.78-5.87-9.75-7.5-3.32-1.36-7-1.65-10.33-.14-3.78,1.71-6.38,5.16-9.93,7.23-4.21,2.46-9.25,1.88-13.9,2.62-4.66.75-8.22,4.66-12.3,6.92-1.39.77-2.82,1.42-4.45,1.38-.91-.02-1.81-.27-2.71-.38-1.4-.17-2.74-.13-3.68,1.04-.23.29-.18,1.5.22,1.5Z"/><path class="cls-10" d="M3611.72,89.28c8.39,0,149.61.93,158.48.65.64-.02.98-.96.35-1.27-5.59-2.77-11.94-2.21-17.75-4.17-3.42-1.15-5.52-3.39-7.9-5.95-2.05-2.22-4.43-3.92-7.35-4.8-2.58-.77-5.38-.87-8-.25-2.87.68-5.35,2.32-8.09,3.36-6.78,2.56-13.38.13-18.22-4.89-4-4.14-7.92-8.04-13.35-10.27-4.55-1.87-9.59-2.26-14.15-.2-5.18,2.35-8.73,7.07-13.6,9.9-5.77,3.37-12.67,2.57-19.03,3.59-6.39,1.02-11.26,6.38-16.85,9.47-1.91,1.06-3.86,1.94-6.09,1.89-1.25-.03-2.47-.37-3.71-.52-1.92-.24-3.75-.18-5.04,1.42-.31.39-.25,2.05.3,2.05Z"/><path class="cls-10" d="M3582.99,221.02c6.13,0,109.23.68,115.71.47.47-.01.72-.7.25-.93-4.08-2.02-8.72-1.62-12.96-3.05-2.5-.84-4.03-2.47-5.76-4.35-1.5-1.62-3.23-2.86-5.37-3.5-1.89-.57-3.92-.64-5.84-.18-2.09.5-3.91,1.7-5.9,2.45-4.95,1.87-9.77.09-13.3-3.57-2.92-3.02-5.78-5.87-9.75-7.5-3.32-1.36-7-1.65-10.33-.14-3.78,1.71-6.38,5.16-9.93,7.23-4.21,2.46-9.25,1.88-13.9,2.62-4.66.75-8.22,4.66-12.3,6.92-1.39.77-2.82,1.42-4.45,1.38-.91-.02-1.81-.27-2.71-.38-1.4-.17-2.74-.13-3.68,1.04-.23.29-.18,1.5.22,1.5Z"/><path class="cls-10" d="M3713.19,140.16c6.13,0,109.23.68,115.71.47.47-.01.72-.7.25-.93-4.08-2.02-8.72-1.62-12.96-3.05-2.5-.84-4.03-2.47-5.76-4.35-1.5-1.62-3.23-2.86-5.36-3.5-1.89-.57-3.93-.64-5.84-.18-2.09.5-3.91,1.7-5.9,2.45-4.95,1.87-9.77.09-13.3-3.57-2.92-3.02-5.78-5.87-9.75-7.5-3.32-1.36-7-1.65-10.33-.14-3.78,1.71-6.38,5.16-9.93,7.23-4.21,2.46-9.25,1.88-13.9,2.62-4.66.75-8.22,4.66-12.3,6.92-1.39.77-2.82,1.42-4.45,1.38-.91-.02-1.81-.27-2.71-.38-1.4-.17-2.74-.13-3.68,1.04-.23.29-.18,1.5.22,1.5Z"/><path class="cls-10" d="M3998.95,204.59c6.13,0,109.23.68,115.71.47.47-.01.72-.7.25-.93-4.08-2.02-8.72-1.62-12.96-3.05-2.5-.84-4.03-2.47-5.76-4.35-1.5-1.62-3.23-2.86-5.36-3.5-1.89-.57-3.93-.64-5.84-.18-2.09.5-3.91,1.7-5.9,2.45-4.95,1.87-9.77.09-13.3-3.57-2.92-3.02-5.78-5.87-9.75-7.5-3.32-1.36-7-1.65-10.33-.14-3.78,1.71-6.38,5.16-9.93,7.23-4.21,2.46-9.25,1.88-13.9,2.62-4.66.75-8.22,4.66-12.3,6.92-1.39.77-2.82,1.42-4.45,1.38-.91-.02-1.81-.27-2.71-.38-1.4-.17-2.74-.13-3.68,1.04-.23.29-.18,1.5.22,1.5Z"/><path class="cls-10" d="M3893.88,556.07c8.39,0,149.61.93,158.48.65.64-.02.98-.96.35-1.27-5.59-2.77-11.94-2.21-17.75-4.17-3.42-1.15-5.52-3.39-7.9-5.95-2.05-2.22-4.43-3.92-7.35-4.8-2.58-.77-5.38-.87-8-.25-2.87.68-5.35,2.32-8.09,3.36-6.78,2.56-13.38.13-18.22-4.89-4-4.14-7.92-8.04-13.35-10.27-4.55-1.87-9.59-2.26-14.15-.2-5.18,2.35-8.73,7.07-13.6,9.9-5.77,3.37-12.67,2.57-19.03,3.59-6.39,1.02-11.26,6.38-16.85,9.47-1.91,1.06-3.86,1.94-6.09,1.89-1.25-.03-2.47-.37-3.71-.52-1.92-.24-3.75-.18-5.04,1.42-.31.39-.25,2.05.3,2.05Z"/><path class="cls-10" d="M3865.15,687.82c6.13,0,109.23.68,115.71.47.47-.01.72-.7.25-.93-4.08-2.02-8.72-1.62-12.96-3.05-2.5-.84-4.03-2.47-5.76-4.35-1.5-1.62-3.23-2.86-5.37-3.5-1.89-.57-3.92-.64-5.84-.18-2.09.5-3.91,1.7-5.9,2.45-4.95,1.87-9.77.09-13.3-3.57-2.92-3.02-5.78-5.87-9.75-7.5-3.32-1.36-7-1.65-10.33-.14-3.78,1.71-6.38,5.16-9.93,7.23-4.21,2.46-9.25,1.88-13.9,2.62-4.66.74-8.22,4.66-12.3,6.92-1.39.77-2.82,1.42-4.45,1.38-.91-.02-1.81-.27-2.71-.38-1.4-.17-2.74-.13-3.68,1.04-.23.29-.18,1.5.22,1.5Z"/><path class="cls-10" d="M3995.35,606.95c6.13,0,109.23.68,115.71.47.47-.01.72-.7.25-.93-4.08-2.02-8.72-1.62-12.96-3.05-2.5-.84-4.03-2.47-5.76-4.35-1.5-1.62-3.23-2.86-5.36-3.5-1.89-.57-3.93-.64-5.84-.18-2.09.5-3.91,1.7-5.9,2.45-4.95,1.87-9.77.09-13.3-3.57-2.92-3.02-5.78-5.87-9.75-7.5-3.32-1.36-7-1.65-10.33-.14-3.78,1.71-6.38,5.16-9.93,7.23-4.21,2.46-9.25,1.88-13.9,2.62-4.66.75-8.22,4.66-12.3,6.92-1.39.77-2.82,1.42-4.45,1.38-.91-.02-1.81-.27-2.71-.38-1.4-.17-2.74-.13-3.68,1.04-.23.29-.18,1.5.22,1.5Z"/><path class="cls-10" d="M4281.11,671.38c6.13,0,109.23.68,115.71.47.47-.01.72-.7.25-.93-4.08-2.02-8.72-1.62-12.96-3.05-2.5-.84-4.03-2.47-5.76-4.35-1.5-1.62-3.23-2.86-5.36-3.5-1.89-.57-3.93-.64-5.84-.18-2.09.5-3.91,1.7-5.9,2.45-4.95,1.87-9.77.09-13.3-3.57-2.92-3.02-5.78-5.87-9.75-7.5-3.32-1.36-7-1.65-10.33-.14-3.78,1.71-6.38,5.16-9.93,7.23-4.21,2.46-9.25,1.88-13.9,2.62-4.66.75-8.22,4.66-12.3,6.92-1.39.77-2.82,1.42-4.45,1.38-.91-.02-1.81-.27-2.71-.38-1.4-.17-2.74-.13-3.68,1.04-.23.29-.18,1.5.22,1.5Z"/></g><g id="Plants"><path class="cls-3" d="M396.44,909.37c-1.47,1.52-2.58,3.41-3.26,5.41-1.42,4.23-.06,8.86-1.39,13.05-.32.42-.65.84-1.02,1.25,0,0-.01.02-.02.02,0,0,0,0,0,.01h0s0,0,0,.01c0,.02,0,.05.01.06.05-.04.11-.08.16-.12.1-.07.19-.15.28-.23.13-.11.26-.22.38-.33.01.02.06-.05.07-.07,3.47-3.24,4.4-8.32,5.79-12.7.79-2.5,2.15-4.75,2.98-7.22.2-.59.73-1.63-.16-1.82-1.01-.21-3.21,2.05-3.81,2.68Z"/><path class="cls-12" d="M395.29,913.06c-2.69,4.65-.42,11.09-3.89,15.34-.1.12-.2.23-.31.35-.07.08-.15.16-.22.23h0s-.06.06-.1.1c0,0-.01.02-.02.02,0,0,0,0,0,.01h0s0,0,0,.01c0,.02,0,.05.01.06,0,0,.01,0,.02.01.02,0,.04,0,.05,0,.13-.11.25-.23.37-.35.3-.29.56-.61.78-.93,0,0,0,0,0,0,1.54-1.87,2.49-4.01,3.18-6.45.84-2.99,1.49-5.98,2.4-8.98.11-.37.79-1.71.16-1.81-.8-.13-2.11,1.85-2.42,2.39ZM395.89,912.47c.18-.25,1.44-1.87,1.8-1.45.21.25-.45,1.63-.51,1.84-.22.82-.44,1.64-.66,2.46-.46,1.73-.9,3.46-1.36,5.18-.57,2.13-1.29,4.18-2.41,6.02,1.89-4.31.22-10.07,3.14-14.05Z"/><path class="cls-3" d="M371.82,954.7c-.03.06-.02.18.09.17,4.81-.48,8.36,3.73,13.18,3.56,1.93-.07,3.84-.58,5.67-1.16,1.35-.43,2.74-.91,3.94-1.66.16-.1.92-.46,1-.79.57-2.53-7.17-1.72-8.41-1.68-4.85.13-9.29.24-13.97,1.2-.49.09-.98.2-1.47.32-.01,0-.02.02-.03.04Z"/><path class="cls-12" d="M371.82,954.7c.18-.01.35-.03.52-.05,3.1.08,6.09,1.07,9.12,1.76,3.05.69,5.94.74,8.95-.19.53-.17,2.68-.74,2.59-1.63-.08-.8-2.16-.4-2.62-.38-3.47.13-6.89.32-10.36.18-2.22-.09-4.47-.19-6.69-.06-.49.09-.98.2-1.47.32-.01,0-.02.02-.03.04ZM374.03,954.56c2.55-.09,5.1.04,7.66.12,1.76.05,3.52.04,5.27-.05.96-.05,1.93-.12,2.89-.16.49-.02.97-.04,1.45-.05.24,0,1.05-.05,1.06.32.03,1-6.15,2.82-11.83,1.2-2.13-.61-4.31-1.18-6.5-1.38Z"/><path class="cls-3" d="M381.36,950.92s-.03.03-.02.05c0,.02.03.03.06.03.11-.04.22-.07.34-.1.41-.13.82-.27,1.22-.42.07-.03.15-.05.22-.08.02,0,.03,0,.05,0,4.41-1.48,9.25-.14,13.48-2.31,1.88-.97,3.48-2.38,4.93-3.9.62-.66,2.95-2.46,2.29-3.57-.52-.87-2.24-.44-2.96-.25-2.29.59-4.41,1.98-6.41,3.19-1.96,1.19-3.86,2.47-5.78,3.71-1.79,1.15-3.64,2.04-5.55,2.87-.61.26-1.22.52-1.84.78Z"/><path class="cls-12" d="M381.36,950.92s-.03.03-.02.05c.36-.13.73-.25,1.09-.38-.23.1-.47.2-.7.3.41-.13.82-.27,1.22-.42.2-.08.4-.16.61-.24,2.48-.76,5.02-1.31,7.59-1.7,1.28-.19,2.47-.54,3.62-1.16,2.1-1.12,6.07-4.25,6.03-5.05-.05-.86-1.47.12-1.83.29-2.86,1.44-5.5,3.23-8.44,4.52-1.98.86-3.97,1.7-5.96,2.55-.46.14-.93.29-1.38.46-.61.26-1.22.52-1.84.78ZM400.45,942.34c.25.3-.8,1.15-1.07,1.37-1.33,1.08-2.72,2.16-4.15,3.1-1.52,1.01-3.14,1.36-4.91,1.61-1.46.2-2.94.5-4.4.89,1.93-.76,3.86-1.54,5.74-2.42,1.56-.73,3.03-1.6,4.52-2.47.74-.43,1.48-.86,2.24-1.26.21-.11,1.81-1.09,2.04-.83"/><path class="cls-3" d="M350.45,958.16s0,.04.01.05c.01.01.04.01.05,0,.07-.08.13-.16.2-.25.24-.3.47-.61.69-.92.04-.06.08-.11.12-.17.02,0,.03,0,.04-.02,2.5-3.31,6.74-4.77,8.75-8.5.9-1.66,1.36-3.5,1.66-5.36.13-.8.93-3.29-.12-3.78-.82-.38-1.87.81-2.3,1.31-1.39,1.59-2.25,3.68-3.11,5.58-.85,1.86-1.59,3.77-2.38,5.65-.74,1.75-1.65,3.34-2.64,4.91-.31.5-.64,1-.96,1.5Z"/><path class="cls-12" d="M350.45,958.16s0,.04.01.05c.2-.28.41-.55.61-.83-.12.19-.25.38-.37.57.24-.3.47-.61.69-.92.11-.16.21-.33.33-.49,1.44-1.81,3.03-3.5,4.73-5.08.85-.79,1.54-1.64,2.08-2.68.98-1.88,2.33-6.19,1.89-6.76-.47-.61-1.02.83-1.2,1.14-1.38,2.5-2.42,5.15-3.94,7.58-1.02,1.63-2.06,3.25-3.1,4.88-.27.34-.53.68-.79,1.03-.31.5-.64,1-.96,1.5ZM352.99,954.67c1.04-1.53,2.06-3.08,3-4.67.78-1.32,1.42-2.71,2.08-4.09.33-.69.66-1.38,1.02-2.06.1-.18.78-1.72,1.08-1.64.33.09,0,1.24-.1,1.55-.43,1.47-.91,2.96-1.49,4.38-.61,1.51-1.62,2.58-2.81,3.66-.97.89-1.91,1.85-2.79,2.87Z"/><path class="cls-3" d="M348.49,960.96c.06.03.17.06.33.05,4.43.48,8.51,2.48,12.96,2.97,1.94.21,3.95.09,5.78-.64.79-.31,3.5-1.37,3.58-2.47.25-3.29-16.62-1.15-22.3-.18-.11,0-.19.01-.25.03-.19.05-.22.17-.11.24Z"/><path class="cls-12" d="M348.49,960.96c.35-.01.71-.02,1.06-.03,1.08.1,2.17.22,3.24.4,1.7.29,3.36.79,5.04,1.17,2.63.6,5.35.59,7.95-.14.56-.16,2.19-.51,2.28-1.3.08-.72-1.16-.6-1.57-.62-5.85-.16-11.74.08-17.59.29-.1,0-.2,0-.3,0-.19.05-.22.17-.11.24ZM351.29,960.88c2.28-.06,4.56-.11,6.84-.15,1.79-.03,3.57-.06,5.36-.07.88,0,1.76-.03,2.65-.02.35,0,1.7,0,1.6.44-.08.4-1.21.78-1.41.85-3.22,1.09-6.5.83-9.74-.01-1.75-.45-3.51-.83-5.29-1.03Z"/><path class="cls-3" d="M382.25,938.73c-.06.04-.08.08-.09.13-.01.07.03.15.1.2.03.03.07.04.11.05.02.01.05.02.07.01,2.62-.82,6.11-1.04,8.75-1.77,2.03-.56,3.93-1.48,5.71-2.6,1.96-1.24,3.86-2.7,5.47-4.39.77-.8,2.73-2.63,2.43-3.95-.6-2.73-7.37,2.62-8.22,3.16-4.79,3.03-9.58,6.07-14.34,9.16Z"/><path class="cls-12" d="M382.16,938.86c-.01.07.03.15.1.2.18-.09.36-.19.54-.29,1.1-.45,2.19-.91,3.31-1.3,1.83-.64,3.74-1.03,5.54-1.73,3.14-1.22,10.54-6.46,9.83-7.72-.37-.66-1.82.46-2.2.7-1.51.97-2.89,2.11-4.41,3.06-1.59,1-3.25,1.9-4.9,2.8-2.54,1.39-5.09,2.77-7.62,4.19-.07.03-.13.06-.2.09ZM384.48,937.86c2.25-1.22,4.5-2.47,6.75-3.71,1.55-.86,3.1-1.73,4.58-2.7.83-.54,1.63-1.13,2.43-1.72.39-.28.78-.57,1.19-.83.35-.22,1.73-1.2,1.8-.55.06.63-1.95,2.26-2.42,2.64-.77.61-1.55,1.21-2.35,1.78-1.58,1.12-3.25,2.13-5.07,2.82-1.81.69-3.72,1.08-5.53,1.75-.46.17-.92.34-1.37.53Z"/><path class="cls-3" d="M359.49,931.48c1.43,5.14,6.13,8.77,4.89,15.87,0,.03.02.04.04.03.01,0,.02,0,.02-.02.2-.68.37-1.36.52-2.06.81-3.74.91-7.72.25-11.46-.4-2.25-1.11-4.46-2.17-6.48-.54-1.03-1.59-3.5-2.77-3.81-2.55-.66-1.04,7-.78,7.93Z"/><path class="cls-12" d="M360.78,929.43c0,3.21,1.73,6.17,2.68,9.15.66,2.06,1.13,4.18,1.26,6.32-.08.82-.19,1.65-.3,2.48.01,0,.02,0,.02-.02.2-.68.37-1.36.52-2.06,0-.04,0-.08,0-.13.28-2.23.26-4.53.06-6.71-.27-3.08-.98-6.13-2.09-9.01-.19-.5-.65-2.48-1.44-2.44-.75.04-.71,1.97-.71,2.41ZM361.58,927.34c.53.06,1.54,3.17,1.93,4.42.82,2.69,1.3,5.49,1.41,8.3.05,1.23.01,2.44-.08,3.64-.16-1.38-.45-2.75-.84-4.1-.8-2.81-2.24-5.47-2.81-8.33-.15-.75-.22-1.52-.18-2.28.02-.3.09-1.7.57-1.65Z"/><path class="cls-3" d="M373.24,914.44c-1.08,1.59-1.99,3.32-2.67,5.13-1.33,3.53-1.76,7.26-1.38,11,0,.07.01.13.02.2-.06.18-.11.36-.15.54-.01.04-.02.08-.03.12,0,.01,0,.02,0,.03h0s.07.06.09,0c.1-.2.21-.4.32-.6,2.18-4.11,5.02-7.77,6.59-12.21.34-.97,2.78-7.2.19-7.24-1.2-.02-2.43,2.22-2.98,3.03Z"/><path class="cls-12" d="M373.64,915.69c-1.45,2.48-2.18,5.56-2.93,8.32-.58,2.14-1.15,4.34-1.52,6.55-.03.18-.06.36-.09.54-.02.06-.03.13-.04.2-.02.05-.03.1-.04.15h0s.07.06.09,0c.1-.2.21-.4.32-.6.04-.17.07-.35.11-.52.85-2.41,2.04-4.65,3.22-6.93.64-1.23,1.25-2.47,1.77-3.75.5-1.24,1.09-2.53,1.31-3.86.09-.58.26-1.73-.62-1.72-.74,0-1.28,1.09-1.59,1.62ZM375.6,915.61c-.25,1.57-.99,3.17-1.61,4.63-.59,1.39-1.3,2.73-2,4.07-.74,1.42-1.5,2.86-2.1,4.36.43-2.05.87-4.09,1.47-6.11.46-1.58.96-3.15,1.54-4.7.3-.8.63-1.58,1.08-2.3.16-.26.33-.51.52-.74.61-.74,1.21.09,1.1.8Z"/><path class="cls-3" d="M404.18,916.68c-.05.06-.09.12-.14.18-.07.09,0,.19.08.22.05.01.1,0,.14-.05.09-.1.18-.21.27-.32h0c.07-.09.14-.17.22-.26.17-.11.35-.22.53-.32,1.95-1.1,4.57-1.53,6.59-2.29,1.84-.69,3.64-1.47,5.31-2.51,1.69-1.05,3.25-2.35,4.38-4,.3-.45,1.14-1.53.7-2.13-.56-.76-2.44.09-3.03.26-2.06.59-4.03,1.5-5.86,2.62-3.68,2.24-6.53,5.28-9.18,8.62Z"/><path class="cls-12" d="M404.93,916.03c-.27.2-.52.42-.76.65-.05.06-.09.12-.14.18-.07.09,0,.19.08.22.04-.04.08-.08.12-.12.1-.08.19-.17.29-.25h0c.24-.2.49-.39.75-.58.89-.66,1.86-1.22,2.92-1.74,1.77-.87,3.58-1.67,5.32-2.61.87-.47,7.59-4.08,6.34-5.39-.23-.25-.7,0-.94.07-.82.28-1.6.72-2.34,1.16-1.74,1.02-3.45,2.11-5.12,3.24-2.29,1.57-4.49,3.27-6.53,5.16ZM410.64,911.67c1.45-1.02,2.93-1.99,4.44-2.93.73-.45,1.47-.92,2.23-1.33.38-.21,2.19-1.07,2.39-.73.3.5-1.87,2.17-2.48,2.61-.71.49-1.44.95-2.18,1.39-1.49.88-3.04,1.66-4.61,2.41-1.38.66-2.96,1.31-4.37,2.17,1.46-1.28,2.99-2.47,4.58-3.59Z"/><path class="cls-3" d="M380.97,929.33c-.01.08-.02.15-.03.22-.02.12.09.17.18.14.05-.01.08-.05.09-.11.02-.13.05-.27.07-.41h0c.02-.12.04-.22.06-.33.09-.19.19-.37.3-.55,1.13-1.93,3.18-3.62,4.55-5.29,1.24-1.52,2.41-3.1,3.33-4.84.93-1.75,1.63-3.66,1.78-5.66.04-.54.22-1.9-.47-2.2-.86-.38-2.06,1.3-2.49,1.75-1.49,1.55-2.73,3.32-3.75,5.2-2.06,3.78-3,7.84-3.61,12.06Z"/><path class="cls-12" d="M381.3,928.39c-.13.31-.24.63-.33.94-.01.08-.02.15-.03.22-.02.12.09.17.18.14.01-.05.03-.11.04-.16.04-.12.08-.24.12-.36h0c.11-.3.23-.59.35-.88.44-1.02,1-1.98,1.65-2.97,1.1-1.64,2.26-3.24,3.3-4.92.52-.84,4.52-7.34,2.78-7.84-.33-.1-.61.35-.78.53-.57.66-1.02,1.43-1.44,2.18-.99,1.75-1.93,3.55-2.8,5.37-1.2,2.51-2.25,5.08-3.06,7.74ZM384.05,921.76c.74-1.61,1.54-3.2,2.37-4.76.41-.76.81-1.53,1.26-2.27.22-.37,1.35-2.02,1.7-1.83.5.28-.52,2.82-.84,3.5-.36.78-.76,1.54-1.18,2.3-.85,1.51-1.8,2.97-2.77,4.4-.86,1.27-1.9,2.62-2.69,4.07.62-1.84,1.35-3.64,2.16-5.4Z"/><path class="cls-3" d="M370.51,927.49c-1.29,3.88-2.41,7.75-3.25,11.75-.65,3.08-1.32,6.21-2.65,9.09-1.6,3.43-4.49,6.68-7.85,9.04,1.55-.6,3.1-1.22,4.65-1.86,3.15-1.31,6.33-2.68,9.11-4.68.28-.2.54-.41.81-.61,0-.02,0-.05.02-.07,2.69-3.27,4.72-6.76,6.29-10.56.36-2.24.49-4.35.41-6.68-.07-2.3-.13-4.53.37-6.8.03-.13.22-.12.21.02-.34,3.16.41,6.79.23,10.15.16-.49.32-.98.47-1.47,1.42-4.74,2.15-9.86,5.95-13.39.13-.12.28.09.17.21-3.96,4.06-4.33,10.58-6.08,15.74-1.31,3.83-3.1,7.76-5.78,10.88,1.67-1.62,3.17-3.4,4.65-5.19,8.95-10.77,18.29-21.26,29.85-29.29.11-.08.25.09.14.17-12.19,8.9-21.26,20.72-31.02,32.04-.11.13-.22.25-.34.38,1.92-1.17,4.11-2.02,6.15-2.65.1-.03.17.11.07.16-2.87,1.34-5.44,3.09-8.19,4.61-1.5,1.51-3.11,2.9-4.92,4.05-2.16,1.37-4.49,2.45-6.84,3.45,3.53-.81,7.07-1.58,10.54-2.65,5.25-1.61,10.44-3.52,15.43-5.82.07-.03.12.08.05.11-5.11,2.63-10.34,4.95-15.83,6.7-4.64,1.49-9.52,2.92-14.41,3.38-5.6,2.26-11.46,4.41-17.44,5.1-.29.03-.33-.36-.07-.43,1.19-.31,2.37-.64,3.54-.98,1.65-1.33,3.52-2.36,5.12-3.79,1.88-1.68,3.52-3.56,4.95-5.64.11-.15.32.01.23.17-1.73,2.93-4.32,6.32-7.41,8.38,1.7-.54,3.38-1.11,5.06-1.71,5.16-2.94,9.74-7.24,11.81-12.86,1.06-2.89,1.63-5.92,2.35-8.9.8-3.32,1.95-6.47,3.24-9.63.06-.14.26-.06.21.08Z"/><path class="cls-3" d="M225.48,903.94c1.17,1.69,1.64,4.04,2.07,6.01.5,2.26.8,4.55.98,6.86.17,2.15.23,4.3.26,6.45,0,.02,0,.04,0,.06,0,.14,0,.28,0,.42.02.17.05.34.06.51,0,.05-.03.09-.06.11-.05.02-.12,0-.13-.07-.02-.09-.03-.19-.05-.28-.67-3.87-3.76-6.75-4.88-10.46-.61-2.04-.66-4.22-.81-6.33-.08-1.17-.41-2.62-.25-3.78.04-.31-.01-.61.26-.84.84-.7,2.14.74,2.55,1.34Z"/><path class="cls-12" d="M224.96,905.57c-.72-.33-.72,1.12-.73,1.52-.12,2.7.23,5.79,1.36,8.26,1.23,2.71,2.5,5.42,3.05,8.36,0,.1,0,.2,0,.3.02.09.03.18.05.28.01.07.07.09.13.07,0-.06-.01-.12-.02-.18.01-.29.02-.58.02-.87,0-.02,0-.04,0-.06-.01-2.06-.32-4.14-.56-6.16-.34-2.86-.8-5.74-1.76-8.46-.23-.66-.48-1.31-.78-1.94-.15-.32-.38-.95-.74-1.12ZM225.73,907.17c.29.67.55,1.36.78,2.07.78,2.41,1.2,4.93,1.51,7.44.27,2.15.6,4.37.61,6.56-.3-1.67-.84-3.29-1.51-4.86-.5-1.18-1.07-2.32-1.58-3.5-.57-1.33-.78-2.73-.94-4.17-.15-1.31-.34-2.72-.18-4.04.03-.27.17-.88.39-.9.39-.03.81,1.15.92,1.41Z"/><path class="cls-3" d="M216.11,937.32s0-.01,0,0"/><path class="cls-3" d="M238.15,959.46c.05.02.08.06.07.1h0s-.02.08-.06.1c-.02.01-.05.02-.08.01-2.62-.56-5.33-1.84-8.04-1.27-2.13.44-3.86,1.18-6.08.84-2.24-.34-4.44-1.2-6.34-2.42-.87-.56-1.69-1.21-2.45-1.92-.36-.34-1.46-1.15-1.48-1.7-.11-2.6,8.35-.15,9.47.18,4.98,1.48,10.13,3.27,14.65,5.87.01,0,.02.02.02.04,0,.02,0,.04-.01.05.11.04.22.08.34.12Z"/><path class="cls-12" d="M238.15,959.46c-.11-.04-.22-.08-.34-.12.01-.01.02-.03.01-.05-2.85-1.17-5.8-2.15-8.74-3.05-3.16-.97-6.4-1.97-9.66-2.51-.45-.08-2.37-.63-2.55.1-.17.71,1.94,1.75,2.39,1.99,2.68,1.37,5.74,1.51,8.68,1.59,1.91.05,3.79.09,5.63.65,1.55.47,3.04,1.12,4.59,1.6.04-.02.06-.06.06-.1-.79-.25-1.57-.55-2.35-.85.78.28,1.57.56,2.35.84,0-.04-.02-.08-.07-.1ZM231.2,957.38c-2.93-.34-5.9-.04-8.81-.67-1.39-.3-2.76-.8-3.95-1.58-.23-.15-1.32-.79-1.22-1.19.07-.27.82-.24.93-.22.83.08,1.65.23,2.47.4,2.84.62,5.65,1.42,8.42,2.27,1.54.47,3.06.99,4.58,1.52-.78-.24-1.59-.44-2.42-.53Z"/><path class="cls-3" d="M214.16,911.3c.87,2.14,1.04,4.58,1,6.88-.1,5.31-1.6,10.62-1.12,15.94.02.21.04.42.07.62.12.25.06.2-.1-.09,0,0,0,0,0,0-.73-1.26-3.59-6.89-4.13-11.34-.33-2.77-.08-5.54.18-8.31.15-1.58.28-3.16.45-4.74.05-.51-.05-1.88.62-2.17,1.29-.56,2.71,2.36,3.05,3.2Z"/><path class="cls-12" d="M211.94,912.36c-.28-.06-.44.08-.56.32-.13.28-.06.67-.06.95,0,.56,0,1.12,0,1.68.02,3.86-.27,7.89.37,11.72.42,2.53,1.21,5.01,2.23,7.38.02.08.05.16.07.24,0,0,0,0,0,0,.17.29.22.34.1.09-.02-.21-.05-.41-.07-.62-.07-.28-.14-.56-.19-.84-.39-1.96-.33-3.96-.22-5.95.21-3.78.27-7.58-.26-11.34-.12-.83-.26-1.69-.56-2.47-.14-.36-.42-1.06-.86-1.16ZM212.57,913.45c.08.18.14.34.2.53.12.38.2.77.28,1.16.18.95.28,1.91.36,2.87.29,3.43.15,6.82,0,10.25-.07,1.69-.06,3.39.27,5.06-.5-1.34-.94-2.7-1.29-4.07-.92-3.53-.81-7.13-.84-10.74,0-.89,0-1.79-.01-2.69,0-.45,0-.9,0-1.34v-.67c-.01-.45-.12-.61.32-.86.54-.31.53.04.74.51Z"/><path class="cls-3" d="M223.12,931.03c1.04,1.48,1.94,3.06,2.69,4.71,1.49,3.32,2.01,7.46,3.84,10.68.14.2.27.42.4.63.05.08.09.16.14.24.02.05-.04.09-.08.05-.11-.13-.22-.25-.34-.38,0,0,0,0,0,0-.06-.07-.12-.13-.18-.2-2.61-2.91-5.62-5.4-7.35-8.99-1.06-2.2-3.47-8.42-2.07-9.31.63-.4,2.31,1.68,2.95,2.57Z"/><path class="cls-12" d="M221.82,931.74c-.32.27-.12.98-.06,1.29.15.79.44,1.61.71,2.37.52,1.44,1.24,2.81,2.01,4.13,1.49,2.52,3.17,5.02,5.1,7.24.06.07.12.13.18.2,0,0,0,0,0,0,.12.13.23.25.34.38.03.04.1,0,.08-.05-.04-.08-.09-.16-.14-.24-1.91-2.67-3.21-5.65-4.43-8.7-.27-.68-2.69-7.54-3.79-6.61ZM223.71,934.28c.28.63.55,1.27.81,1.91.62,1.49,1.2,3,1.83,4.49.69,1.62,1.45,3.22,2.37,4.73-1.27-1.67-2.5-3.36-3.61-5.16-.72-1.18-1.41-2.39-1.98-3.65-.31-.69-.58-1.39-.79-2.11-.11-.34-.78-2.31-.41-2.59.46-.35,1.65,2.1,1.77,2.38Z"/><path class="cls-3" d="M235.97,920.33c1.12.82,1.27,3,1.1,4.22-.24,1.74-1.12,3.29-2.16,4.67-1.51,2.01-3.34,3.74-4.45,6.03-1.11,2.27-.74,1.57-1.24,4.24,0,.05-.05.06-.1.03-.07-.04-.15-.16-.17-.36,0-.02,0-.04,0-.07,0-4.16,1.19-7.75,3.04-11.49,1.05-2.12,1.38-4.54,2.5-6.61.42-.77.71-1.23,1.48-.67Z"/><path class="cls-12" d="M235.61,922.61c-.64-.12-1.06,1.23-1.24,1.73-.53,1.44-1.04,2.87-1.82,4.2-.69,1.17-1.39,2.31-1.92,3.56-.81,1.9-1.33,3.92-1.52,5.97-.07.35-.12.72-.16,1.09.02.2.1.32.17.36,0-.05,0-.09,0-.14.27-2.74,1.36-5.08,3.11-7.32,1.75-2.23,3.32-4.6,3.81-7.44.09-.5.15-1.88-.44-2ZM235.96,924.29c-.07.49-.18.97-.31,1.44-.25.86-.59,1.68-.99,2.48-.73,1.41-1.68,2.65-2.65,3.89-1.14,1.47-2.06,3.06-2.59,4.77.29-1.76.8-3.49,1.54-5.14.67-1.46,1.61-2.76,2.31-4.19.32-.66.58-1.35.84-2.04.14-.37.27-.75.41-1.12.12-.33.48-1.49.92-1.52.57-.04.55,1.22.52,1.42Z"/><path class="cls-3" d="M197.74,919.9c4.46,2.98,8.74,6.22,12.89,9.62.05.04.07.11.05.16,0,.01,0,.02,0,.03.03.02.05.04.08.07.03.03.02.06,0,.08,0,0-.01,0-.02.01,0,0,0,0,0,0-.02,0-.04,0-.07,0-2.7-1.54-5.23-2.97-8.3-3.65-2.8-.62-5.52-1.03-8.14-2.27-2.24-1.06-9.44-7.32-9.08-9.37.25-1.38,9.05,2.95,12.6,5.32Z"/><path class="cls-12" d="M192.79,918.43c-.56-.31-2.33-1.68-3.08-1.11-.75.57,1.05,1.94,1.39,2.24,1.27,1.09,2.59,2.15,4.06,2.98,1.46.82,3.04,1.21,4.61,1.74,3.87,1.31,7.53,3.38,10.95,5.6,0,0,0,0,0,0,0,0,.01,0,.02-.01.02-.02.02-.06,0-.08-.02-.02-.05-.04-.08-.07,0,0,0-.02,0-.03-5.58-4.31-11.76-7.8-17.88-11.25ZM210.34,929.59c-2.34-1.55-4.81-2.96-7.36-4.15-2.96-1.39-6.24-1.93-8.97-3.79-1.3-.88-2.72-1.9-3.76-3.09-.14-.16-.65-.69-.48-1,.15-.27.81-.16,1.73.33.76.4,1.5.85,2.25,1.27,2.95,1.67,5.89,3.36,8.77,5.15,2.67,1.66,5.27,3.42,7.81,5.27Z"/><path class="cls-3" d="M219.56,944.6s0,.04,0,.06c0,.05-.04.09-.1.09-.12,0-.24-.01-.36-.02,0,0-.01.01-.03.02-2.54.33-4.43,1.28-6.64,2.5-1.64.91-3.45,1.36-5.33,1.4-2.04.04-4.07-.39-6.01-1.01-.79-.25-3.21-.65-3.17-1.93.07-2.1,7.29-1.29,8.53-1.22,2.2.12,4.37.18,6.58.03,2.16-.15,4.31-.35,6.46.04.03,0,.05.03.06.05Z"/><path class="cls-12" d="M218.17,944.65s0,0,0,0c-1.26.04-2.53.03-3.78.14-1.4.12-2.77.51-4.18.63-2.64.23-5.28-.06-7.92.05-.34.01-1.02.06-.7.57.13.22.53.33.75.41.66.25,1.34.43,2.03.57,2.34.44,4.94.53,7.23-.18,2.66-.83,5.14-2.03,7.95-2.16,0-.02,0-.04,0-.06-.46-.02-.93,0-1.38.05ZM212.39,946.35c-2.85,1-6.07,1.04-8.99.24-.28-.08-1.01-.31-1.28-.44-.25-.12-.65-.41.17-.52.19-.03.39,0,.59-.01.69,0,1.37,0,2.06.01,1.47.03,2.94.08,4.4,0,1.31-.06,2.57-.29,3.85-.54,1.55-.31,3.13-.34,4.71-.42-1.89.26-3.72,1.04-5.51,1.67Z"/><path class="cls-3" d="M211.06,941.14s.03.07.03.11c0,.02,0,.04,0,.06,0,.03-.02.05-.03.07,0,.01,0,.02-.01.02-.04.04-.09.07-.17.06-.41-.04-.8-.11-1.17-.2-4.49-.48-9.09-1.02-13.17-3.02-2.08-1.02-4-2.35-5.76-3.86-.86-.74-3.08-2.18-2.85-3.6.23-1.38,1.56-.89,2.46-.58,2.33.81,4.63,1.71,6.84,2.8,2.2,1.09,4.24,2.39,6.14,3.93,2.27,1.84,4.49,3.77,7.51,4.08.09,0,.14.05.17.11Z"/><path class="cls-12" d="M202.01,937.36c-2.93-1.84-6.06-3.39-9.23-4.78-.41-.18-1.58-.62-1.52.2.07.97,1.71,1.7,2.38,2.11,2.53,1.56,5.15,2.98,7.9,4.11,3.07,1.26,6.24,2.1,9.54,2.32,0-.02,0-.04,0-.06-5.42-.53-10.54-2.61-15.24-5.28-1.13-.65-2.28-1.3-3.35-2.03-.17-.12-1.2-.95-.98-1.31.19-.31,1.48.25,1.63.32.72.33,1.45.67,2.17,1.01,2.72,1.3,5.3,2.77,7.86,4.34,2.47,1.52,5.06,2.52,7.91,2.94,0-.04-.01-.08-.03-.11-3.34-.53-6.19-1.99-9.05-3.78Z"/><path class="cls-3" d="M192.39,900.72c1.87,1.52,3.58,3.18,4.83,5.26,1.9,3.18,2.79,6.8,4.21,10.19,0,.01.01.03.02.04.38.92.81,1.82,1.31,2.7.1.19.21.37.32.55.03.05.03.09.01.13-.02.03-.04.05-.07.06-.02.01-.06.02-.09.02h0s-.09-.03-.12-.07c-.17-.26-.34-.52-.5-.78-.02,0-.04,0-.05-.03-3.26-3.84-6.82-7.65-10.36-11.37-1.56-1.65-3.07-3.38-4.3-5.3-.73-1.13-1.73-2.91-1.12-4.3.04-.09.1-.18.21-.19,2.08-.19,4.22,1.89,5.7,3.09Z"/><path class="cls-12" d="M190.27,901.58c-1.03-.06-.54,1.02-.24,1.55.81,1.4,1.87,2.7,2.85,4,1.1,1.46,2.22,2.91,3.36,4.34,2.16,2.7,4.84,5.24,6.69,8.18,0,0,0,0,0,.01h0s.06,0,.09-.02c.03-.01.05-.04.07-.06-.11-.23-.22-.45-.34-.68-.44-.9-.87-1.8-1.31-2.7,0-.01-.01-.02-.02-.04-2.1-4.32-4.29-8.58-7.79-12.13-.82-.82-2.11-2.39-3.38-2.45ZM194.17,904.82c2.12,2.27,3.81,4.84,5.23,7.56,1.13,2.17,2.1,4.41,3.19,6.6-1.15-1.68-2.59-3.19-3.9-4.77-2.06-2.48-4.05-5.01-5.98-7.59-.46-.62-.92-1.24-1.38-1.87-.4-.56-1.17-1.39-1.35-2.06-.35-1.31.98-.71,1.44-.41.4.26.75.59,1.1.91.57.53,1.12,1.08,1.65,1.65Z"/><path class="cls-3" d="M227.72,916.78c.54,4.48.81,8.87.75,13.38-.06,4.11-.16,8.23.36,12.31.69,5.42,2.68,11.05,6.55,14.9-5.83-3.99-10.9-9.06-15.17-14.82-7.16-9.68-13.99-19.77-21.97-28.81-.13-.15-.34.05-.23.2,3.64,5.12,7.62,10.01,11.31,15.1,3.66,5.06,7.19,10.23,10.94,15.22.41.54.82,1.07,1.24,1.59-4.43-3.26-10.13-5.01-15.4-5.52-.07,0-.07.09,0,.1,3.81.6,7.49,1.91,10.89,3.71,2.97,1.58,5.47,3.65,8.07,5.73,6.4,6.6,14.17,11.42,23.18,14.18.09.03.14-.11.05-.15-3.63-1.26-7.05-2.89-10.27-4.84-5.8-4.55-8-12.09-8.54-19.33-.28-3.8-.26-7.6-.35-11.4-.09-3.86-.13-7.88-1.21-11.61-.04-.13-.22-.09-.21.05Z"/></g><g id="Cage"><rect class="cls-1" x="256.14" y="721.06" width="2.16" height="144.95"/><rect class="cls-1" x="290.17" y="721.06" width="2.16" height="144.95"/><rect class="cls-6" x="252.74" y="861.57" width="42.99" height="8.25"/><rect class="cls-14" x="252.74" y="861.57" width="42.99" height="8.25"/><path class="cls-6" d="M350.57,952.44h-152.67v-164.8c0-40.33,32.1-69.61,76.34-69.61s76.34,29.27,76.34,69.61v33.87h-4.32v-33.87c0-19.04-7.26-35.45-20.99-47.46-13.14-11.5-31.27-17.83-51.03-17.83s-37.89,6.33-51.03,17.83c-13.73,12.01-20.99,28.42-20.99,47.46v160.48h144.04v-41.31h4.32v45.63Z"/><path class="cls-6" d="M225.83,950.29h-4.32v-162.64c0-40.33,22.17-69.61,52.72-69.61v4.32c-28.04,0-48.4,27.46-48.4,65.29v162.64Z"/><path class="cls-6" d="M251.11,950.29h-4.32v-170.72c0-36.82,14.91-52.5,26.12-61.09l2.62,3.43c-10.49,8.03-24.43,22.75-24.43,57.66v170.72Z"/><path class="cls-6" d="M301.67,950.29h-4.32v-170.72c0-34.91-13.94-49.62-24.43-57.66l2.62-3.43c11.22,8.59,26.13,24.27,26.13,61.09v170.72Z"/><path class="cls-6" d="M327.32,950.29h-4.32v-162.64c0-37.83-20.36-65.29-48.4-65.29v-4.32c30.55,0,52.72,29.27,52.72,69.61v162.64Z"/><rect class="cls-6" x="272.08" y="712.94" width="4.32" height="237.34"/><path class="cls-6" d="M274.23,713.7c-5.02,0-9.1-4.08-9.1-9.1s4.08-9.1,9.1-9.1,9.1,4.08,9.1,9.1-4.08,9.1-9.1,9.1ZM274.23,699.82c-2.64,0-4.78,2.14-4.78,4.78s2.14,4.78,4.78,4.78,4.78-2.14,4.78-4.78-2.14-4.78-4.78-4.78Z"/><rect class="cls-6" x="203.26" y="764.48" width="142.54" height="4.32"/><rect class="cls-6" x="200.06" y="909.96" width="148.35" height="4.32"/><path class="cls-6" d="M364.64,842.44c-4.5,0-8.58-1.22-11.74-3.6-3.03-2.29-6.65-6.73-6.65-14.92v-22.6h4.32v22.6c0,5.08,1.71,9.04,4.93,11.48,3.84,2.89,9.61,3.53,15.83,1.74l1.19,4.15c-2.71.78-5.36,1.16-7.88,1.16Z"/><path class="cls-6" d="M350.57,936.02h-4.32v-32.69c0-5.04,2.45-10.2,6.91-14.52,4.34-4.21,9.77-6.73,14.13-6.62l-.13,4.32c-3.14-.1-7.56,2.07-10.99,5.4-3.56,3.45-5.6,7.62-5.6,11.42v32.69Z"/><path class="cls-6" d="M364.86,828.69l-2.01-3.82c4.2-2.21,10.06-9.08,11.61-13.61l4.08,1.4c-1.9,5.53-8.54,13.32-13.68,16.03Z"/><path class="cls-6" d="M399.58,885.08c-4-2.55-12.87-4.22-17.58-3.32l-.81-4.24c5.74-1.1,15.8.81,20.7,3.92l-2.32,3.64Z"/><path class="cls-6" d="M379.69,903.72c-2.55-3.49-6.77-6.61-11.03-8.14l1.46-4.06c5.1,1.83,9.98,5.45,13.05,9.66l-3.49,2.54Z"/><path class="cls-6" d="M406.79,901.6c-2.55-3.49-6.77-6.61-11.03-8.14l1.46-4.06c5.1,1.83,9.98,5.45,13.05,9.66l-3.49,2.54Z"/><path class="cls-6" d="M380.92,840.05l1.19-4.15c4.15,1.19,9.4,1.06,13.7-.35l1.34,4.1c-5.15,1.69-11.22,1.83-16.23.39Z"/><g class="cls-15"><path class="cls-4" d="M350.57,952.44h-152.67v-164.8c0-40.33,32.1-69.61,76.34-69.61s76.34,29.27,76.34,69.61v33.87h-4.32v-33.87c0-19.04-7.26-35.45-20.99-47.46-13.14-11.5-31.27-17.83-51.03-17.83s-37.89,6.33-51.03,17.83c-13.73,12.01-20.99,28.42-20.99,47.46v160.48h144.04v-41.31h4.32v45.63Z"/><path class="cls-4" d="M225.83,950.29h-4.32v-162.64c0-40.33,22.17-69.61,52.72-69.61v4.32c-28.04,0-48.4,27.46-48.4,65.29v162.64Z"/><path class="cls-4" d="M251.11,950.29h-4.32v-170.72c0-36.82,14.91-52.5,26.12-61.09l2.62,3.43c-10.49,8.03-24.43,22.75-24.43,57.66v170.72Z"/><path class="cls-4" d="M301.67,950.29h-4.32v-170.72c0-34.91-13.94-49.62-24.43-57.66l2.62-3.43c11.22,8.59,26.13,24.27,26.13,61.09v170.72Z"/><path class="cls-4" d="M327.32,950.29h-4.32v-162.64c0-37.83-20.36-65.29-48.4-65.29v-4.32c30.55,0,52.72,29.27,52.72,69.61v162.64Z"/><rect class="cls-4" x="272.08" y="712.94" width="4.32" height="237.34"/><path class="cls-4" d="M274.23,713.7c-5.02,0-9.1-4.08-9.1-9.1s4.08-9.1,9.1-9.1,9.1,4.08,9.1,9.1-4.08,9.1-9.1,9.1ZM274.23,699.82c-2.64,0-4.78,2.14-4.78,4.78s2.14,4.78,4.78,4.78,4.78-2.14,4.78-4.78-2.14-4.78-4.78-4.78Z"/><rect class="cls-4" x="203.26" y="764.48" width="142.54" height="4.32"/><rect class="cls-4" x="200.06" y="909.96" width="148.35" height="4.32"/><path class="cls-4" d="M364.64,842.44c-4.5,0-8.58-1.22-11.74-3.6-3.03-2.29-6.65-6.73-6.65-14.92v-22.6h4.32v22.6c0,5.08,1.71,9.04,4.93,11.48,3.84,2.89,9.61,3.53,15.83,1.74l1.19,4.15c-2.71.78-5.36,1.16-7.88,1.16Z"/><path class="cls-4" d="M350.57,936.02h-4.32v-32.69c0-5.04,2.45-10.2,6.91-14.52,4.34-4.21,9.77-6.73,14.13-6.62l-.13,4.32c-3.14-.1-7.56,2.07-10.99,5.4-3.56,3.45-5.6,7.62-5.6,11.42v32.69Z"/><path class="cls-4" d="M364.86,828.69l-2.01-3.82c4.2-2.21,10.06-9.08,11.61-13.61l4.08,1.4c-1.9,5.53-8.54,13.32-13.68,16.03Z"/><path class="cls-4" d="M399.58,885.08c-4-2.55-12.87-4.22-17.58-3.32l-.81-4.24c5.74-1.1,15.8.81,20.7,3.92l-2.32,3.64Z"/><path class="cls-4" d="M379.69,903.72c-2.55-3.49-6.77-6.61-11.03-8.14l1.46-4.06c5.1,1.83,9.98,5.45,13.05,9.66l-3.49,2.54Z"/><path class="cls-4" d="M406.79,901.6c-2.55-3.49-6.77-6.61-11.03-8.14l1.46-4.06c5.1,1.83,9.98,5.45,13.05,9.66l-3.49,2.54Z"/><path class="cls-4" d="M380.92,840.05l1.19-4.15c4.15,1.19,9.4,1.06,13.7-.35l1.34,4.1c-5.15,1.69-11.22,1.83-16.23.39Z"/></g><polygon class="cls-14" points="350.57 929.87 350.57 952.45 197.9 952.45 197.9 925.63 202.21 925.75 202.21 948.13 221.52 948.13 221.52 926.29 225.84 926.41 225.84 948.13 246.79 948.13 246.79 926.99 251.11 927.11 251.11 948.13 272.08 948.13 272.08 927.69 276.39 927.81 276.39 948.13 297.35 948.13 297.35 928.4 301.67 928.51 301.67 948.13 323 948.13 323 929.11 327.32 929.22 327.32 948.13 346.25 948.13 346.25 929.75 350.57 929.87"/><rect class="cls-6" x="193.5" y="932.64" width="161.47" height="31.43"/><rect class="cls-13" x="193.5" y="932.64" width="161.47" height="31.43"/><rect class="cls-5" x="288.11" y="932.64" width="40.84" height="31.43"/><rect class="cls-5" x="307.07" y="932.64" width="15.39" height="31.43"/></g><g id="Bird"><path class="cls-6" d="M578.1,801.18c-.55-.68-1.46-1.08-2.33-1.05-1.03.04-1.72.6-2.46,1.24-.13.11-.13.27-.07.39,0,.12.1.23.25.21.93-.1,1.64.36,1.76,1.31.1.79-.41,1.42-.67,2.12-.07.18.14.34.3.26,1.06-.52,1.99-2.3,1.46-3.44-.02-.03-.04-.07-.05-.1.12.06.22.13.32.22.96.83.53,2.26.24,3.27-.05.19.15.41.34.3,1.33-.8,1.89-3.5.91-4.73Z"/><path class="cls-6" d="M553.86,781.15l-24.92-78.11s33.15,6.5,43.89,27.67c10.74,21.18,2.07,46.49,2.07,46.49l-21.04,3.94Z"/><path class="cls-11" d="M553.86,781.15l-24.92-78.11s33.15,6.5,43.89,27.67c10.74,21.18,2.07,46.49,2.07,46.49l-21.04,3.94Z"/><path class="cls-6" d="M528.96,703.04s0,.02,0,.03l-.02-.04h0Z"/><path class="cls-6" d="M574.9,777.21l-21.05,3.94-24.87-78.02c.96,2.44,21.45,54.48,33.31,58.23,11.95,3.78,14.48-18.54,14.56-19.25,3.94,17.91-1.95,35.1-1.95,35.1Z"/><path class="cls-6" d="M531.61,797.47l31.92-35.64s2.86-16.69,16.84-16.69c14.17,0,15.7,15.16,14.68,21.94,0,0-1.1,52.07-62.54,38.1l-32.42,11.97s2.69-5.79,8.58-8.58c0,0-10.87.2-17.45-2.69l40.4-8.41Z"/><path class="cls-9" d="M531.61,797.47l31.92-35.64s2.86-16.69,16.84-16.69c14.17,0,15.7,15.16,14.68,21.94,0,0-1.1,52.07-62.54,38.1l-32.42,11.97s2.69-5.79,8.58-8.58c0,0-10.87.2-17.45-2.69l40.4-8.41Z"/><path class="cls-7" d="M595.05,767.08s-1.1,52.07-62.54,38.11l-32.41,11.97s2.7-5.78,8.58-8.58c0,0-10.88.2-17.46-2.69,27.88,5.43,40.79-5.76,40.79-5.76,61.44,13.96,63.04-39.28,63.04-39.28.02-.18.06-.37.07-.57.29,2.57.2,4.98-.07,6.81Z"/><path class="cls-6" d="M564.65,768.47l-71.39-40.32s-.99,37.51,17.55,52.34c18.54,14.83,45.68,7.78,45.68,7.78l8.15-19.8Z"/><path class="cls-9" d="M564.65,768.47l-71.39-40.32s-.99,37.51,17.55,52.34c18.54,14.83,45.68,7.78,45.68,7.78l8.15-19.8Z"/><path class="cls-6" d="M538.4,789.89s9.23.67,18.09-1.62c0,0-9.07,3.51-18.09,1.62Z"/><path class="cls-6" d="M559.95,765.82l4.69,2.65s-.97-1.68-4.69-2.65Z"/><path class="cls-6" d="M495.63,738.45c20.18,10.2,39.86,21.29,59.28,32.86,0,0,.27.16.27.16l-.03.29c-.48,4.09-1,8.18-1.57,12.26.16-4.12.38-8.23.63-12.34,0,0,.24.45.24.45-19.96-10.61-39.64-21.71-58.82-33.68h0Z"/><path class="cls-6" d="M501.02,748.87c18,8.16,35.87,16.87,53.38,26.03-18-8.16-35.87-16.87-53.38-26.03h0Z"/><path class="cls-6" d="M503.78,756.75c16.95,6.71,33.78,13.99,50.29,21.74-16.95-6.72-33.79-13.99-50.29-21.74h0Z"/><path class="cls-6" d="M507.66,765.82c15.45,4.56,30.83,9.7,45.92,15.32-15.45-4.57-30.83-9.7-45.92-15.32h0Z"/><path class="cls-1" d="M578.82,759.14c0,.85.89,2.22,2.67,2.22s2.59-1.57,2.59-2.22c0-1.04-1.05-2.38-2.63-2.38s-2.63,1.34-2.63,2.38Z"/><path class="cls-6" d="M578.82,759.14s-9.51-2.89-9.51.13,9.51-.13,9.51-.13Z"/><path class="cls-6" d="M584.08,758.98s4.39-1.98,4.39.09-4.39-.09-4.39-.09Z"/><polygon class="cls-6" points="588.46 758.77 593.24 753.2 602.36 757.31 588.46 758.77"/><polygon class="cls-6" points="588.46 758.77 594.26 760.41 597.2 757.85 588.46 758.77"/><path class="cls-6" d="M570.64,801.35c-.55-.68-1.46-1.08-2.33-1.05-1.03.04-1.72.6-2.46,1.24-.13.11-.13.27-.07.39,0,.12.1.23.25.21.93-.1,1.64.36,1.76,1.31.1.79-.41,1.42-.67,2.12-.07.18.14.34.3.26,1.06-.52,1.99-2.3,1.46-3.44-.02-.03-.04-.07-.05-.1.12.06.22.13.32.22.96.83.53,2.26.24,3.27-.05.19.15.41.34.3,1.33-.8,1.89-3.5.91-4.73Z"/></g><g id="Table"><path class="cls-8" d="M190.88,963.85c88.26-.61,187.27-.62,275.52,0-88.26.62-187.27.61-275.52,0h0Z"/></g></svg>