<?xml version="1.0" encoding="UTF-8"?><svg xmlns="http://www.w3.org/2000/svg" viewBox="0 0 4397.32 964.23"><defs><style>.cls-1{fill:#263238;}.cls-1,.cls-2,.cls-3,.cls-4,.cls-5,.cls-6,.cls-7,.cls-8,.cls-9,.cls-10,.cls-11,.cls-12,.cls-13,.cls-14{stroke-width:0px;}.cls-2{fill:#dbdbdb;}.cls-3{fill:#455a64;}.cls-4,.cls-13,.cls-14{fill:#000;}.cls-5{opacity:.3;}.cls-5,.cls-9,.cls-11,.cls-12{fill:#fff;}.cls-6,.cls-7{fill:#ffc727;}.cls-7{opacity:.5;}.cls-8{fill:#263238;}.cls-15,.cls-13{opacity:.1;}.cls-9{opacity:.4;}.cls-10{fill:#ebebeb;}.cls-11,.cls-14{opacity:.2;}</style></defs><g id="Background_Complete"><path class="cls-2" d="M491.83,868.85c-53.21.65-112.9.66-166.11,0,53.21-.66,112.9-.65,166.11,0h0Z"/><path class="cls-2" d="M531.66,891.35c-54.82.65-116.33.66-171.15,0,54.82-.66,116.33-.65,171.15,0h0Z"/><path class="cls-2" d="M448.89,868.85c.68,7.5.69,15.01,0,22.51-.69-7.5-.68-15.01,0-22.51h0Z"/><path class="cls-2" d="M365.08,868.85c.68,7.5.69,15.01,0,22.51-.69-7.5-.68-15.01,0-22.51h0Z"/><path class="cls-2" d="M490.82,891.26c.68,7.5.69,15.01,0,22.51-.69-7.5-.68-15.01,0-22.51h0Z"/><path class="cls-2" d="M406.87,891.26c.68,7.5.69,15.01,0,22.51-.69-7.5-.68-15.01,0-22.51h0Z"/><path class="cls-2" d="M374.76,603.61c-54.82.65-116.33.66-171.15,0,54.82-.66,116.33-.65,171.15,0h0Z"/><path class="cls-2" d="M315.51,626.11c-36.96.66-78.04.65-115.02,0,36.99-.65,78.06-.66,115.02,0h0Z"/><path class="cls-2" d="M254.98,581.1c.68,7.5.69,15.01,0,22.51-.69-7.5-.68-15.01,0-22.51h0Z"/><path class="cls-2" d="M296.87,603.61c.68,7.5.69,15.01,0,22.51-.69-7.5-.68-15.01,0-22.51h0Z"/><path class="cls-2" d="M213.09,603.61c.68,7.5.69,15.01,0,22.51-.69-7.5-.68-15.01,0-22.51h0Z"/><path class="cls-2" d="M316.7,783.67c-23.68.67-47.51.67-71.19,0,23.69-.67,47.51-.67,71.19,0h0Z"/><path class="cls-2" d="M333.36,806.18c-36.96.66-78.04.65-115.02,0,36.99-.65,78.06-.66,115.02,0h0Z"/><path class="cls-2" d="M296.88,761.16c.68,7.5.69,15.01,0,22.51-.69-7.5-.68-15.01,0-22.51h0Z"/><path class="cls-2" d="M254.99,783.67c.68,7.5.69,15.01,0,22.51-.69-7.5-.68-15.01,0-22.51h0Z"/><path class="cls-10" d="M416.91,315.83c8.39,0,149.61.93,158.48.65.64-.02.98-.96.35-1.27-5.59-2.77-11.94-2.21-17.75-4.17-3.42-1.15-5.52-3.39-7.9-5.95-2.05-2.22-4.43-3.92-7.35-4.8-2.58-.77-5.38-.87-8-.25-2.87.68-5.35,2.32-8.09,3.36-6.78,2.56-13.38.13-18.22-4.89-4-4.14-7.92-8.04-13.35-10.27-4.55-1.87-9.59-2.26-14.15-.2-5.18,2.35-8.73,7.07-13.6,9.9-5.77,3.37-12.67,2.57-19.03,3.59-6.39,1.02-11.26,6.38-16.85,9.47-1.91,1.06-3.86,1.94-6.09,1.89-1.25-.03-2.47-.37-3.71-.52-1.92-.24-3.75-.18-5.04,1.42-.31.39-.25,2.05.3,2.05Z"/><path class="cls-10" d="M196.51,167.5c8.39,0,149.61.93,158.48.65.64-.02.98-.96.35-1.27-5.59-2.77-11.94-2.21-17.75-4.17-3.42-1.15-5.52-3.39-7.9-5.95-2.05-2.22-4.43-3.92-7.35-4.8-2.58-.77-5.38-.87-8-.25-2.87.68-5.35,2.32-8.09,3.36-6.78,2.56-13.38.13-18.22-4.89-4-4.14-7.92-8.04-13.35-10.27-4.55-1.87-9.59-2.26-14.15-.2-5.18,2.35-8.73,7.07-13.6,9.9-5.77,3.37-12.67,2.57-19.03,3.59-6.39,1.02-11.26,6.38-16.85,9.47-1.91,1.06-3.86,1.94-6.09,1.89-1.25-.03-2.47-.37-3.71-.52-1.92-.24-3.75-.18-5.04,1.42-.31.39-.25,2.05.3,2.05Z"/><path class="cls-10" d="M388.18,447.57c6.13,0,109.23.68,115.71.47.47-.01.72-.7.25-.93-4.08-2.02-8.72-1.62-12.96-3.05-2.5-.84-4.03-2.47-5.76-4.35-1.5-1.62-3.23-2.86-5.37-3.5-1.89-.57-3.92-.64-5.84-.18-2.09.5-3.91,1.7-5.9,2.45-4.95,1.87-9.77.09-13.3-3.57-2.92-3.02-5.78-5.87-9.75-7.5-3.32-1.36-7-1.65-10.33-.14-3.78,1.71-6.38,5.16-9.93,7.23-4.21,2.46-9.25,1.88-13.9,2.62-4.66.75-8.22,4.66-12.3,6.92-1.39.77-2.82,1.42-4.45,1.38-.91-.02-1.81-.27-2.71-.38-1.4-.17-2.74-.13-3.68,1.04-.23.29-.18,1.5.22,1.5Z"/><path class="cls-10" d="M518.37,366.71c6.13,0,109.23.68,115.71.47.47-.01.72-.7.25-.93-4.08-2.02-8.72-1.62-12.96-3.05-2.5-.84-4.03-2.47-5.76-4.35-1.5-1.62-3.23-2.86-5.36-3.5-1.89-.57-3.93-.64-5.84-.18-2.09.5-3.91,1.7-5.9,2.45-4.95,1.87-9.77.09-13.3-3.57-2.92-3.02-5.78-5.87-9.75-7.5-3.32-1.36-7-1.65-10.33-.14-3.78,1.71-6.38,5.16-9.93,7.23-4.21,2.46-9.25,1.88-13.9,2.62-4.66.75-8.22,4.66-12.3,6.92-1.39.77-2.82,1.42-4.45,1.38-.91-.02-1.81-.27-2.71-.38-1.4-.17-2.74-.13-3.68,1.04-.23.29-.18,1.5.22,1.5Z"/><path class="cls-10" d="M2198.32,51.05c8.39,0,149.61.93,158.48.65.64-.02.98-.96.35-1.27-5.59-2.77-11.94-2.21-17.75-4.17-3.42-1.15-5.52-3.39-7.9-5.95-2.05-2.22-4.43-3.92-7.35-4.8-2.58-.77-5.38-.87-8-.25-2.87.68-5.35,2.32-8.09,3.36-6.78,2.56-13.38.13-18.22-4.89-4-4.14-7.92-8.04-13.35-10.27-4.55-1.87-9.59-2.26-14.15-.2-5.18,2.35-8.73,7.07-13.6,9.9-5.77,3.37-12.67,2.57-19.03,3.59-6.39,1.02-11.26,6.38-16.85,9.47-1.91,1.06-3.86,1.94-6.09,1.89-1.25-.03-2.47-.37-3.71-.52-1.92-.24-3.75-.18-5.04,1.42-.31.39-.25,2.05.3,2.05Z"/><path class="cls-10" d="M2169.6,182.8c6.13,0,109.23.68,115.71.47.47-.01.72-.7.25-.93-4.08-2.02-8.72-1.62-12.96-3.05-2.5-.84-4.03-2.47-5.76-4.35-1.5-1.62-3.23-2.86-5.37-3.5-1.89-.57-3.92-.64-5.84-.18-2.09.5-3.91,1.7-5.9,2.45-4.95,1.87-9.77.09-13.3-3.57-2.92-3.02-5.78-5.87-9.75-7.5-3.32-1.36-7-1.65-10.33-.14-3.78,1.71-6.38,5.16-9.93,7.23-4.21,2.46-9.25,1.88-13.9,2.62-4.66.75-8.22,4.66-12.3,6.92-1.39.77-2.82,1.42-4.45,1.38-.91-.02-1.81-.27-2.71-.38-1.4-.17-2.74-.13-3.68,1.04-.23.29-.18,1.5.22,1.5Z"/><path class="cls-10" d="M2492.17,381.35c6.13,0,109.23.68,115.71.47.47-.01.72-.7.25-.93-4.08-2.02-8.72-1.62-12.96-3.05-2.5-.84-4.03-2.47-5.76-4.35-1.5-1.62-3.23-2.86-5.37-3.5-1.89-.57-3.92-.64-5.84-.18-2.09.5-3.91,1.7-5.9,2.45-4.95,1.87-9.77.09-13.3-3.57-2.92-3.02-5.78-5.87-9.75-7.5-3.32-1.36-7-1.65-10.33-.14-3.78,1.71-6.38,5.16-9.93,7.23-4.21,2.46-9.25,1.88-13.9,2.62-4.66.74-8.22,4.66-12.3,6.92-1.39.77-2.82,1.42-4.45,1.38-.91-.02-1.81-.27-2.71-.38-1.4-.17-2.74-.13-3.68,1.04-.23.29-.18,1.5.22,1.5Z"/><path class="cls-10" d="M2299.79,101.93c6.13,0,109.23.68,115.71.47.47-.01.72-.7.25-.93-4.08-2.02-8.72-1.62-12.96-3.05-2.5-.84-4.03-2.47-5.76-4.35-1.5-1.62-3.23-2.86-5.37-3.5-1.89-.57-3.93-.64-5.84-.18-2.09.5-3.91,1.7-5.9,2.45-4.95,1.87-9.77.09-13.3-3.57-2.92-3.02-5.78-5.87-9.75-7.5-3.32-1.36-7-1.65-10.33-.14-3.78,1.71-6.38,5.16-9.93,7.23-4.21,2.46-9.25,1.88-13.9,2.62-4.66.75-8.22,4.66-12.3,6.92-1.39.77-2.82,1.42-4.45,1.38-.91-.02-1.81-.27-2.71-.38-1.4-.17-2.74-.13-3.68,1.04-.23.29-.18,1.5.22,1.5Z"/><path class="cls-10" d="M1240.26,420.34c8.39,0,149.61.93,158.48.65.64-.02.98-.96.35-1.27-5.59-2.77-11.94-2.21-17.75-4.17-3.42-1.15-5.52-3.39-7.9-5.95-2.05-2.22-4.43-3.92-7.35-4.8-2.58-.77-5.38-.87-8-.25-2.87.68-5.35,2.32-8.09,3.36-6.78,2.56-13.38.13-18.22-4.89-4-4.14-7.92-8.04-13.35-10.27-4.55-1.87-9.59-2.26-14.15-.2-5.18,2.35-8.73,7.07-13.6,9.9-5.77,3.37-12.67,2.57-19.03,3.59-6.39,1.02-11.26,6.38-16.85,9.47-1.91,1.06-3.86,1.94-6.09,1.89-1.25-.03-2.47-.37-3.71-.52-1.92-.24-3.75-.18-5.04,1.42-.31.39-.25,2.05.3,2.05Z"/><path class="cls-10" d="M1211.53,552.09c6.13,0,109.23.68,115.71.47.47-.01.72-.7.25-.93-4.08-2.02-8.72-1.62-12.96-3.05-2.5-.84-4.03-2.47-5.76-4.35-1.5-1.62-3.23-2.86-5.37-3.5-1.89-.57-3.92-.64-5.84-.18-2.09.5-3.91,1.7-5.9,2.45-4.95,1.87-9.77.09-13.3-3.57-2.92-3.02-5.78-5.87-9.75-7.5-3.32-1.36-7-1.65-10.33-.14-3.78,1.71-6.38,5.16-9.93,7.23-4.21,2.46-9.25,1.88-13.9,2.62-4.66.75-8.22,4.66-12.3,6.92-1.39.77-2.82,1.42-4.45,1.38-.91-.02-1.81-.27-2.71-.38-1.4-.17-2.74-.13-3.68,1.04-.23.29-.18,1.5.22,1.5Z"/><path class="cls-10" d="M1534.11,750.64c6.13,0,109.23.68,115.71.47.47-.01.72-.7.25-.93-4.08-2.02-8.72-1.62-12.96-3.05-2.5-.84-4.03-2.47-5.76-4.35-1.5-1.62-3.23-2.86-5.37-3.5-1.89-.57-3.92-.64-5.84-.18-2.09.5-3.91,1.7-5.9,2.45-4.95,1.87-9.77.09-13.3-3.57-2.92-3.02-5.78-5.87-9.75-7.5-3.32-1.36-7-1.65-10.33-.14-3.78,1.71-6.38,5.16-9.93,7.23-4.21,2.46-9.25,1.88-13.9,2.62-4.66.74-8.22,4.66-12.3,6.92-1.39.77-2.82,1.42-4.45,1.38-.91-.02-1.81-.27-2.71-.38-1.4-.17-2.74-.13-3.68,1.04-.23.29-.18,1.5.22,1.5Z"/><path class="cls-10" d="M1341.73,471.22c6.13,0,109.23.68,115.71.47.47-.01.72-.7.25-.93-4.08-2.02-8.72-1.62-12.96-3.05-2.5-.84-4.03-2.47-5.76-4.35-1.5-1.62-3.23-2.86-5.37-3.5-1.89-.57-3.93-.64-5.84-.18-2.09.5-3.91,1.7-5.9,2.45-4.95,1.87-9.77.09-13.3-3.57-2.92-3.02-5.78-5.87-9.75-7.5-3.32-1.36-7-1.65-10.33-.14-3.78,1.71-6.38,5.16-9.93,7.23-4.21,2.46-9.25,1.88-13.9,2.62-4.66.75-8.22,4.66-12.3,6.92-1.39.77-2.82,1.42-4.45,1.38-.91-.02-1.81-.27-2.71-.38-1.4-.17-2.74-.13-3.68,1.04-.23.29-.18,1.5.22,1.5Z"/><path class="cls-10" d="M882.58,89.42c8.39,0,149.61.93,158.48.65.64-.02.98-.96.35-1.27-5.59-2.77-11.94-2.21-17.75-4.17-3.42-1.15-5.52-3.39-7.9-5.95-2.05-2.22-4.43-3.92-7.35-4.8-2.58-.77-5.38-.87-8-.25-2.87.68-5.35,2.32-8.09,3.36-6.78,2.56-13.38.13-18.22-4.89-4-4.14-7.92-8.04-13.35-10.27-4.55-1.87-9.59-2.26-14.15-.2-5.18,2.35-8.73,7.07-13.6,9.9-5.77,3.37-12.67,2.57-19.03,3.59-6.39,1.02-11.26,6.38-16.85,9.47-1.91,1.06-3.86,1.94-6.09,1.89-1.25-.03-2.47-.37-3.71-.52-1.92-.24-3.75-.18-5.04,1.42-.31.39-.25,2.05.3,2.05Z"/><path class="cls-10" d="M853.85,221.17c6.13,0,109.23.68,115.71.47.47-.01.72-.7.25-.93-4.08-2.02-8.72-1.62-12.96-3.05-2.5-.84-4.03-2.47-5.76-4.35-1.5-1.62-3.23-2.86-5.37-3.5-1.89-.57-3.92-.64-5.84-.18-2.09.5-3.91,1.7-5.9,2.45-4.95,1.87-9.77.09-13.3-3.57-2.92-3.02-5.78-5.87-9.75-7.5-3.32-1.36-7-1.65-10.33-.14-3.78,1.71-6.38,5.16-9.93,7.23-4.21,2.46-9.25,1.88-13.9,2.62-4.66.75-8.22,4.66-12.3,6.92-1.39.77-2.82,1.42-4.45,1.38-.91-.02-1.81-.27-2.71-.38-1.4-.17-2.74-.13-3.68,1.04-.23.29-.18,1.5.22,1.5Z"/><path class="cls-10" d="M984.05,140.3c6.13,0,109.23.68,115.71.47.47-.01.72-.7.25-.93-4.08-2.02-8.72-1.62-12.96-3.05-2.5-.84-4.03-2.47-5.76-4.35-1.5-1.62-3.23-2.86-5.36-3.5-1.89-.57-3.93-.64-5.84-.18-2.09.5-3.91,1.7-5.9,2.45-4.95,1.87-9.77.09-13.3-3.57-2.92-3.02-5.78-5.87-9.75-7.5-3.32-1.36-7-1.65-10.33-.14-3.78,1.71-6.38,5.16-9.93,7.23-4.21,2.46-9.25,1.88-13.9,2.62-4.66.75-8.22,4.66-12.3,6.92-1.39.77-2.82,1.42-4.45,1.38-.91-.02-1.81-.27-2.71-.38-1.4-.17-2.74-.13-3.68,1.04-.23.29-.18,1.5.22,1.5Z"/><path class="cls-10" d="M1269.81,204.74c6.13,0,109.23.68,115.71.47.47-.01.72-.7.25-.93-4.08-2.02-8.72-1.62-12.96-3.05-2.5-.84-4.03-2.47-5.76-4.35-1.5-1.62-3.23-2.86-5.36-3.5-1.89-.57-3.93-.64-5.84-.18-2.09.5-3.91,1.7-5.9,2.45-4.95,1.87-9.77.09-13.3-3.57-2.92-3.02-5.78-5.87-9.75-7.5-3.32-1.36-7-1.65-10.33-.14-3.78,1.71-6.38,5.16-9.93,7.23-4.21,2.46-9.25,1.88-13.9,2.62-4.66.75-8.22,4.66-12.3,6.92-1.39.77-2.82,1.42-4.45,1.38-.91-.02-1.81-.27-2.71-.38-1.4-.17-2.74-.13-3.68,1.04-.23.29-.18,1.5.22,1.5Z"/><path class="cls-10" d="M1930.89,180.47c-35.88,0-65.06-29.19-65.06-65.06s29.19-65.06,65.06-65.06,65.06,29.19,65.06,65.06-29.19,65.06-65.06,65.06ZM1930.89,50.93c-35.55,0-64.48,28.92-64.48,64.48s28.92,64.48,64.48,64.48,64.48-28.93,64.48-64.48-28.93-64.48-64.48-64.48Z"/><path class="cls-10" d="M1930.89,173.42c-31.99,0-58.01-26.02-58.01-58.01s26.02-58.01,58.01-58.01,58.01,26.02,58.01,58.01-26.02,58.01-58.01,58.01ZM1930.89,57.99c-31.66,0-57.43,25.76-57.43,57.43s25.76,57.43,57.43,57.43,57.43-25.76,57.43-57.43-25.76-57.43-57.43-57.43Z"/><rect class="cls-10" x="1892.49" y="15.73" width=".58" height="10.73" transform="translate(129.92 710.58) rotate(-22)"/><rect class="cls-10" x="1899.6" y="29.84" width=".58" height="17.7" transform="translate(123.86 714.54) rotate(-22)"/><rect class="cls-10" x="1836.96" y="70.3" width=".58" height="10.73" transform="translate(1049.73 1737.3) rotate(-67)"/><rect class="cls-10" x="1854.43" y="74.23" width=".58" height="17.7" transform="translate(1053.56 1757.9) rotate(-67)"/><rect class="cls-10" x="1831.21" y="153.23" width="10.73" height=".58" transform="translate(76.23 699.19) rotate(-22)"/><rect class="cls-10" x="1845.32" y="146.12" width="17.7" height=".58" transform="translate(80.17 705.25) rotate(-22)"/><rect class="cls-10" x="1885.78" y="208.75" width="10.73" height=".58" transform="translate(959.78 1868.17) rotate(-67)"/><rect class="cls-10" x="1889.71" y="191.29" width="17.7" height=".58" transform="translate(980.39 1864.36) rotate(-67)"/><rect class="cls-10" x="1968.7" y="204.36" width=".58" height="10.73" transform="translate(64.81 752.86) rotate(-22)"/><rect class="cls-10" x="1961.6" y="183.28" width=".58" height="17.7" transform="translate(70.89 748.94) rotate(-22)"/><rect class="cls-10" x="2024.23" y="149.79" width=".58" height="10.73" transform="translate(1090.68 1958.13) rotate(-67)"/><rect class="cls-10" x="2006.77" y="138.89" width=".58" height="17.7" transform="translate(1086.86 1937.53) rotate(-67)"/><rect class="cls-10" x="2019.84" y="77.01" width="10.73" height=".58" transform="translate(118.51 764.28) rotate(-22)"/><rect class="cls-10" x="1998.76" y="84.12" width="17.7" height=".58" transform="translate(114.57 758.22) rotate(-22)"/><rect class="cls-10" x="1965.27" y="21.48" width="10.73" height=".58" transform="translate(1180.6 1827.25) rotate(-67)"/><rect class="cls-10" x="1954.37" y="38.95" width="17.7" height=".58" transform="translate(1160.01 1831.07) rotate(-67)"/><rect class="cls-10" x="1930.6" width=".58" height="26.4"/><rect class="cls-10" x="1930.6" y="32.35" width=".58" height="9.17"/><rect class="cls-10" x="1858.32" y="29.94" width=".58" height="26.4" transform="translate(513.87 1326.87) rotate(-45)"/><rect class="cls-10" x="1875.1" y="55.33" width=".58" height="9.17" transform="translate(507.13 1343.88) rotate(-45.01)"/><rect class="cls-10" x="1815.48" y="115.12" width="26.4" height=".58"/><rect class="cls-10" x="1847.83" y="115.12" width="9.17" height=".58"/><rect class="cls-10" x="1845.42" y="187.4" width="26.4" height=".58" transform="translate(411.66 1369.21) rotate(-45)"/><rect class="cls-10" x="1870.81" y="170.61" width="9.17" height=".58" transform="translate(428.25 1375.93) rotate(-44.99)"/><rect class="cls-10" x="1930.6" y="204.43" width=".58" height="26.4"/><rect class="cls-10" x="1930.6" y="189.31" width=".58" height="9.17"/><rect class="cls-10" x="2002.87" y="174.49" width=".58" height="26.4" transform="translate(454 1471.42) rotate(-45)"/><rect class="cls-10" x="1986.09" y="166.32" width=".58" height="9.17" transform="translate(461.16 1454.89) rotate(-45.01)"/><rect class="cls-10" x="2019.91" y="115.12" width="26.4" height=".58"/><rect class="cls-10" x="2004.79" y="115.12" width="9.17" height=".58"/><rect class="cls-10" x="1989.97" y="42.84" width="26.4" height=".58" transform="translate(556.21 1429.09) rotate(-45)"/><rect class="cls-10" x="1981.8" y="59.62" width="9.17" height=".58" transform="translate(539.21 1421.9) rotate(-44.99)"/><path class="cls-10" d="M1932.22,115.41c0,.73-.6,1.33-1.33,1.33s-1.33-.6-1.33-1.33.6-1.33,1.33-1.33,1.33.6,1.33,1.33Z"/><path class="cls-10" d="M1884.88,556.21c8.39,0,149.61.93,158.48.65.64-.02.98-.96.35-1.27-5.59-2.77-11.94-2.21-17.75-4.17-3.42-1.15-5.52-3.39-7.9-5.95-2.05-2.22-4.43-3.92-7.35-4.8-2.58-.77-5.38-.87-8-.25-2.87.68-5.35,2.32-8.09,3.36-6.78,2.56-13.38.13-18.22-4.89-4-4.14-7.92-8.04-13.35-10.27-4.55-1.87-9.59-2.26-14.15-.2-5.18,2.35-8.73,7.07-13.6,9.9-5.77,3.37-12.67,2.57-19.03,3.59-6.39,1.02-11.26,6.38-16.85,9.47-1.91,1.06-3.86,1.94-6.09,1.89-1.25-.03-2.47-.37-3.71-.52-1.92-.24-3.75-.18-5.04,1.42-.31.39-.25,2.05.3,2.05Z"/><path class="cls-10" d="M1856.15,687.96c6.13,0,109.23.68,115.71.47.47-.01.72-.7.25-.93-4.08-2.02-8.72-1.62-12.96-3.05-2.5-.84-4.03-2.47-5.76-4.35-1.5-1.62-3.23-2.86-5.37-3.5-1.89-.57-3.92-.64-5.84-.18-2.09.5-3.91,1.7-5.9,2.45-4.95,1.87-9.77.09-13.3-3.57-2.92-3.02-5.78-5.87-9.75-7.5-3.32-1.36-7-1.65-10.33-.14-3.78,1.71-6.38,5.16-9.93,7.23-4.21,2.46-9.25,1.88-13.9,2.62-4.66.75-8.22,4.66-12.3,6.92-1.39.77-2.82,1.42-4.45,1.38-.91-.02-1.81-.27-2.71-.38-1.4-.17-2.74-.13-3.68,1.04-.23.29-.18,1.5.22,1.5Z"/><path class="cls-10" d="M2178.72,886.52c6.13,0,109.23.68,115.71.47.47-.01.72-.7.25-.93-4.08-2.02-8.72-1.62-12.96-3.05-2.5-.84-4.03-2.47-5.76-4.35-1.5-1.62-3.23-2.86-5.37-3.5-1.89-.57-3.92-.64-5.84-.18-2.09.5-3.91,1.7-5.9,2.45-4.95,1.87-9.77.09-13.3-3.57-2.92-3.02-5.78-5.87-9.75-7.5-3.32-1.36-7-1.65-10.33-.14-3.78,1.71-6.38,5.16-9.93,7.23-4.21,2.46-9.25,1.88-13.9,2.62-4.66.74-8.22,4.66-12.3,6.92-1.39.77-2.82,1.42-4.45,1.38-.91-.02-1.81-.27-2.71-.38-1.4-.17-2.74-.13-3.68,1.04-.23.29-.18,1.5.22,1.5Z"/><path class="cls-10" d="M1986.34,607.09c6.13,0,109.23.68,115.71.47.47-.01.72-.7.25-.93-4.08-2.02-8.72-1.62-12.96-3.05-2.5-.84-4.03-2.47-5.76-4.35-1.5-1.62-3.23-2.86-5.37-3.5-1.89-.57-3.93-.64-5.84-.18-2.09.5-3.91,1.7-5.9,2.45-4.95,1.87-9.77.09-13.3-3.57-2.92-3.02-5.78-5.87-9.75-7.5-3.32-1.36-7-1.65-10.33-.14-3.78,1.71-6.38,5.16-9.93,7.23-4.21,2.46-9.25,1.88-13.9,2.62-4.66.75-8.22,4.66-12.3,6.92-1.39.77-2.82,1.42-4.45,1.38-.91-.02-1.81-.27-2.71-.38-1.4-.17-2.74-.13-3.68,1.04-.23.29-.18,1.5.22,1.5Z"/><path class="cls-10" d="M2858.33,250.05c8.39,0,149.61.93,158.48.65.64-.02.98-.96.35-1.27-5.59-2.77-11.94-2.21-17.75-4.17-3.42-1.15-5.52-3.39-7.9-5.95-2.05-2.22-4.43-3.92-7.35-4.8-2.58-.77-5.38-.87-8-.25-2.87.68-5.35,2.32-8.09,3.36-6.78,2.56-13.38.13-18.22-4.89-4-4.14-7.92-8.04-13.35-10.27-4.55-1.87-9.59-2.26-14.15-.2-5.18,2.35-8.73,7.07-13.6,9.9-5.77,3.37-12.67,2.57-19.03,3.59-6.39,1.02-11.26,6.38-16.85,9.47-1.91,1.06-3.86,1.94-6.09,1.89-1.25-.03-2.47-.37-3.71-.52-1.92-.24-3.75-.18-5.04,1.42-.31.39-.25,2.05.3,2.05Z"/><path class="cls-10" d="M2829.6,381.79c6.13,0,109.23.68,115.71.47.47-.01.72-.7.25-.93-4.08-2.02-8.72-1.62-12.96-3.05-2.5-.84-4.03-2.47-5.76-4.35-1.5-1.62-3.23-2.86-5.37-3.5-1.89-.57-3.92-.64-5.84-.18-2.09.5-3.91,1.7-5.9,2.45-4.95,1.87-9.77.09-13.3-3.57-2.92-3.02-5.78-5.87-9.75-7.5-3.32-1.36-7-1.65-10.33-.14-3.78,1.71-6.38,5.16-9.93,7.23-4.21,2.46-9.25,1.88-13.9,2.62-4.66.75-8.22,4.66-12.3,6.92-1.39.77-2.82,1.42-4.45,1.38-.91-.02-1.81-.27-2.71-.38-1.4-.17-2.74-.13-3.68,1.04-.23.29-.18,1.5.22,1.5Z"/><path class="cls-10" d="M2959.8,300.93c6.13,0,109.23.68,115.71.47.47-.01.72-.7.25-.93-4.08-2.02-8.72-1.62-12.96-3.05-2.5-.84-4.03-2.47-5.76-4.35-1.5-1.62-3.23-2.86-5.36-3.5-1.89-.57-3.93-.64-5.84-.18-2.09.5-3.91,1.7-5.9,2.45-4.95,1.87-9.77.09-13.3-3.57-2.92-3.02-5.78-5.87-9.75-7.5-3.32-1.36-7-1.65-10.33-.14-3.78,1.71-6.38,5.16-9.93,7.23-4.21,2.46-9.25,1.88-13.9,2.62-4.66.75-8.22,4.66-12.3,6.92-1.39.77-2.82,1.42-4.45,1.38-.91-.02-1.81-.27-2.71-.38-1.4-.17-2.74-.13-3.68,1.04-.23.29-.18,1.5.22,1.5Z"/><path class="cls-10" d="M3245.56,365.36c6.13,0,109.23.68,115.71.47.47-.01.72-.7.25-.93-4.08-2.02-8.72-1.62-12.96-3.05-2.5-.84-4.03-2.47-5.76-4.35-1.5-1.62-3.23-2.86-5.36-3.5-1.89-.57-3.93-.64-5.84-.18-2.09.5-3.91,1.7-5.9,2.45-4.95,1.87-9.77.09-13.3-3.57-2.92-3.02-5.78-5.87-9.75-7.5-3.32-1.36-7-1.65-10.33-.14-3.78,1.71-6.38,5.16-9.93,7.23-4.21,2.46-9.25,1.88-13.9,2.62-4.66.75-8.22,4.66-12.3,6.92-1.39.77-2.82,1.42-4.45,1.38-.91-.02-1.81-.27-2.71-.38-1.4-.17-2.74-.13-3.68,1.04-.23.29-.18,1.5.22,1.5Z"/><path class="cls-10" d="M2871.22,754.64c8.39,0,149.61.93,158.48.65.64-.02.98-.96.35-1.27-5.59-2.77-11.94-2.21-17.75-4.17-3.42-1.15-5.52-3.39-7.9-5.95-2.05-2.22-4.43-3.92-7.35-4.8-2.58-.77-5.38-.87-8-.25-2.87.68-5.35,2.32-8.09,3.36-6.78,2.56-13.38.13-18.22-4.89-4-4.14-7.92-8.04-13.35-10.27-4.55-1.87-9.59-2.26-14.15-.2-5.18,2.35-8.73,7.07-13.6,9.9-5.77,3.37-12.67,2.57-19.03,3.59-6.39,1.02-11.26,6.38-16.85,9.47-1.91,1.06-3.86,1.94-6.09,1.89-1.25-.03-2.47-.37-3.71-.52-1.92-.24-3.75-.18-5.04,1.42-.31.39-.25,2.05.3,2.05Z"/><path class="cls-10" d="M2842.49,886.39c6.13,0,109.23.68,115.71.47.47-.01.72-.7.25-.93-4.08-2.02-8.72-1.62-12.96-3.05-2.5-.84-4.03-2.47-5.76-4.35-1.5-1.62-3.23-2.86-5.37-3.5-1.89-.57-3.92-.64-5.84-.18-2.09.5-3.91,1.7-5.9,2.45-4.95,1.87-9.77.09-13.3-3.57-2.92-3.02-5.78-5.87-9.75-7.5-3.32-1.36-7-1.65-10.33-.14-3.78,1.71-6.38,5.16-9.93,7.23-4.21,2.46-9.25,1.88-13.9,2.62-4.66.75-8.22,4.66-12.3,6.92-1.39.77-2.82,1.42-4.45,1.38-.91-.02-1.81-.27-2.71-.38-1.4-.17-2.74-.13-3.68,1.04-.23.29-.18,1.5.22,1.5Z"/><path class="cls-10" d="M2972.69,805.52c6.13,0,109.23.68,115.71.47.47-.01.72-.7.25-.93-4.08-2.02-8.72-1.62-12.96-3.05-2.5-.84-4.03-2.47-5.76-4.35-1.5-1.62-3.23-2.86-5.36-3.5-1.89-.57-3.93-.64-5.84-.18-2.09.5-3.91,1.7-5.9,2.45-4.95,1.87-9.77.09-13.3-3.57-2.92-3.02-5.78-5.87-9.75-7.5-3.32-1.36-7-1.65-10.33-.14-3.78,1.71-6.38,5.16-9.93,7.23-4.21,2.46-9.25,1.88-13.9,2.62-4.66.75-8.22,4.66-12.3,6.92-1.39.77-2.82,1.42-4.45,1.38-.91-.02-1.81-.27-2.71-.38-1.4-.17-2.74-.13-3.68,1.04-.23.29-.18,1.5.22,1.5Z"/><path class="cls-10" d="M3258.45,869.96c6.13,0,109.23.68,115.71.47.47-.01.72-.7.25-.93-4.08-2.02-8.72-1.62-12.96-3.05-2.5-.84-4.03-2.47-5.76-4.35-1.5-1.62-3.23-2.86-5.36-3.5-1.89-.57-3.93-.64-5.84-.18-2.09.5-3.91,1.7-5.9,2.45-4.95,1.87-9.77.09-13.3-3.57-2.92-3.02-5.78-5.87-9.75-7.5-3.32-1.36-7-1.65-10.33-.14-3.78,1.71-6.38,5.16-9.93,7.23-4.21,2.46-9.25,1.88-13.9,2.62-4.66.75-8.22,4.66-12.3,6.92-1.39.77-2.82,1.42-4.45,1.38-.91-.02-1.81-.27-2.71-.38-1.4-.17-2.74-.13-3.68,1.04-.23.29-.18,1.5.22,1.5Z"/><path class="cls-10" d="M3611.72,89.28c8.39,0,149.61.93,158.48.65.64-.02.98-.96.35-1.27-5.59-2.77-11.94-2.21-17.75-4.17-3.42-1.15-5.52-3.39-7.9-5.95-2.05-2.22-4.43-3.92-7.35-4.8-2.58-.77-5.38-.87-8-.25-2.87.68-5.35,2.32-8.09,3.36-6.78,2.56-13.38.13-18.22-4.89-4-4.14-7.92-8.04-13.35-10.27-4.55-1.87-9.59-2.26-14.15-.2-5.18,2.35-8.73,7.07-13.6,9.9-5.77,3.37-12.67,2.57-19.03,3.59-6.39,1.02-11.26,6.38-16.85,9.47-1.91,1.06-3.86,1.94-6.09,1.89-1.25-.03-2.47-.37-3.71-.52-1.92-.24-3.75-.18-5.04,1.42-.31.39-.25,2.05.3,2.05Z"/><path class="cls-10" d="M3582.99,221.02c6.13,0,109.23.68,115.71.47.47-.01.72-.7.25-.93-4.08-2.02-8.72-1.62-12.96-3.05-2.5-.84-4.03-2.47-5.76-4.35-1.5-1.62-3.23-2.86-5.37-3.5-1.89-.57-3.92-.64-5.84-.18-2.09.5-3.91,1.7-5.9,2.45-4.95,1.87-9.77.09-13.3-3.57-2.92-3.02-5.78-5.87-9.75-7.5-3.32-1.36-7-1.65-10.33-.14-3.78,1.71-6.38,5.16-9.93,7.23-4.21,2.46-9.25,1.88-13.9,2.62-4.66.75-8.22,4.66-12.3,6.92-1.39.77-2.82,1.42-4.45,1.38-.91-.02-1.81-.27-2.71-.38-1.4-.17-2.74-.13-3.68,1.04-.23.29-.18,1.5.22,1.5Z"/><path class="cls-10" d="M3713.19,140.16c6.13,0,109.23.68,115.71.47.47-.01.72-.7.25-.93-4.08-2.02-8.72-1.62-12.96-3.05-2.5-.84-4.03-2.47-5.76-4.35-1.5-1.62-3.23-2.86-5.36-3.5-1.89-.57-3.93-.64-5.84-.18-2.09.5-3.91,1.7-5.9,2.45-4.95,1.87-9.77.09-13.3-3.57-2.92-3.02-5.78-5.87-9.75-7.5-3.32-1.36-7-1.65-10.33-.14-3.78,1.71-6.38,5.16-9.93,7.23-4.21,2.46-9.25,1.88-13.9,2.62-4.66.75-8.22,4.66-12.3,6.92-1.39.77-2.82,1.42-4.45,1.38-.91-.02-1.81-.27-2.71-.38-1.4-.17-2.74-.13-3.68,1.04-.23.29-.18,1.5.22,1.5Z"/><path class="cls-10" d="M3998.95,204.59c6.13,0,109.23.68,115.71.47.47-.01.72-.7.25-.93-4.08-2.02-8.72-1.62-12.96-3.05-2.5-.84-4.03-2.47-5.76-4.35-1.5-1.62-3.23-2.86-5.36-3.5-1.89-.57-3.93-.64-5.84-.18-2.09.5-3.91,1.7-5.9,2.45-4.95,1.87-9.77.09-13.3-3.57-2.92-3.02-5.78-5.87-9.75-7.5-3.32-1.36-7-1.65-10.33-.14-3.78,1.71-6.38,5.16-9.93,7.23-4.21,2.46-9.25,1.88-13.9,2.62-4.66.75-8.22,4.66-12.3,6.92-1.39.77-2.82,1.42-4.45,1.38-.91-.02-1.81-.27-2.71-.38-1.4-.17-2.74-.13-3.68,1.04-.23.29-.18,1.5.22,1.5Z"/><path class="cls-10" d="M3893.88,556.07c8.39,0,149.61.93,158.48.65.64-.02.98-.96.35-1.27-5.59-2.77-11.94-2.21-17.75-4.17-3.42-1.15-5.52-3.39-7.9-5.95-2.05-2.22-4.43-3.92-7.35-4.8-2.58-.77-5.38-.87-8-.25-2.87.68-5.35,2.32-8.09,3.36-6.78,2.56-13.38.13-18.22-4.89-4-4.14-7.92-8.04-13.35-10.27-4.55-1.87-9.59-2.26-14.15-.2-5.18,2.35-8.73,7.07-13.6,9.9-5.77,3.37-12.67,2.57-19.03,3.59-6.39,1.02-11.26,6.38-16.85,9.47-1.91,1.06-3.86,1.94-6.09,1.89-1.25-.03-2.47-.37-3.71-.52-1.92-.24-3.75-.18-5.04,1.42-.31.39-.25,2.05.3,2.05Z"/><path class="cls-10" d="M3865.15,687.82c6.13,0,109.23.68,115.71.47.47-.01.72-.7.25-.93-4.08-2.02-8.72-1.62-12.96-3.05-2.5-.84-4.03-2.47-5.76-4.35-1.5-1.62-3.23-2.86-5.37-3.5-1.89-.57-3.92-.64-5.84-.18-2.09.5-3.91,1.7-5.9,2.45-4.95,1.87-9.77.09-13.3-3.57-2.92-3.02-5.78-5.87-9.75-7.5-3.32-1.36-7-1.65-10.33-.14-3.78,1.71-6.38,5.16-9.93,7.23-4.21,2.46-9.25,1.88-13.9,2.62-4.66.74-8.22,4.66-12.3,6.92-1.39.77-2.82,1.42-4.45,1.38-.91-.02-1.81-.27-2.71-.38-1.4-.17-2.74-.13-3.68,1.04-.23.29-.18,1.5.22,1.5Z"/><path class="cls-10" d="M3995.35,606.95c6.13,0,109.23.68,115.71.47.47-.01.72-.7.25-.93-4.08-2.02-8.72-1.62-12.96-3.05-2.5-.84-4.03-2.47-5.76-4.35-1.5-1.62-3.23-2.86-5.36-3.5-1.89-.57-3.93-.64-5.84-.18-2.09.5-3.91,1.7-5.9,2.45-4.95,1.87-9.77.09-13.3-3.57-2.92-3.02-5.78-5.87-9.75-7.5-3.32-1.36-7-1.65-10.33-.14-3.78,1.71-6.38,5.16-9.93,7.23-4.21,2.46-9.25,1.88-13.9,2.62-4.66.75-8.22,4.66-12.3,6.92-1.39.77-2.82,1.42-4.45,1.38-.91-.02-1.81-.27-2.71-.38-1.4-.17-2.74-.13-3.68,1.04-.23.29-.18,1.5.22,1.5Z"/><path class="cls-10" d="M4281.11,671.38c6.13,0,109.23.68,115.71.47.47-.01.72-.7.25-.93-4.08-2.02-8.72-1.62-12.96-3.05-2.5-.84-4.03-2.47-5.76-4.35-1.5-1.62-3.23-2.86-5.36-3.5-1.89-.57-3.93-.64-5.84-.18-2.09.5-3.91,1.7-5.9,2.45-4.95,1.87-9.77.09-13.3-3.57-2.92-3.02-5.78-5.87-9.75-7.5-3.32-1.36-7-1.65-10.33-.14-3.78,1.71-6.38,5.16-9.93,7.23-4.21,2.46-9.25,1.88-13.9,2.62-4.66.75-8.22,4.66-12.3,6.92-1.39.77-2.82,1.42-4.45,1.38-.91-.02-1.81-.27-2.71-.38-1.4-.17-2.74-.13-3.68,1.04-.23.29-.18,1.5.22,1.5Z"/></g><g id="Plants"><path class="cls-3" d="M478.83,888.05c-2.05,2.11-3.59,4.73-4.53,7.52-1.98,5.88-.08,12.31-1.94,18.14-.44.59-.91,1.17-1.41,1.73,0,.01-.02.02-.03.03,0,0,0,0,0,.01h0s0,0,0,.01c-.01.03,0,.06.02.08.08-.05.15-.11.22-.17.14-.1.26-.21.39-.31.18-.15.36-.3.53-.46.02.02.09-.06.1-.09,4.83-4.5,6.12-11.57,8.05-17.66,1.1-3.48,2.98-6.6,4.14-10.04.27-.82,1.02-2.26-.23-2.53-1.4-.3-4.46,2.85-5.3,3.72Z"/><path class="cls-12" d="M477.23,893.17c-3.75,6.47-.59,15.42-5.4,21.33-.14.16-.28.33-.43.49-.1.11-.2.22-.31.33h0s-.09.09-.13.13c0,.01-.02.02-.03.03,0,0,0,0,0,.01h0s0,0,0,.01c-.01.03,0,.06.02.08,0,0,.02.01.02.02.02.01.05,0,.08-.01.18-.16.35-.32.51-.49.41-.41.77-.84,1.09-1.3,0,0,0,0,0,0,2.14-2.59,3.46-5.58,4.42-8.97,1.17-4.16,2.08-8.31,3.34-12.47.16-.51,1.1-2.37.22-2.51-1.12-.18-2.93,2.58-3.37,3.32ZM478.06,892.35c.25-.34,2.01-2.6,2.5-2.02.29.34-.63,2.26-.71,2.55-.3,1.14-.61,2.28-.91,3.42-.63,2.4-1.25,4.81-1.89,7.21-.79,2.96-1.8,5.81-3.35,8.37,2.63-5.99.31-13.99,4.36-19.53Z"/><path class="cls-3" d="M444.62,951.05c-.04.09-.03.25.12.23,6.69-.67,11.62,5.18,18.32,4.95,2.69-.1,5.33-.8,7.88-1.61,1.88-.6,3.8-1.27,5.48-2.31.23-.14,1.28-.64,1.39-1.1.79-3.51-9.96-2.38-11.69-2.33-6.75.18-12.91.34-19.42,1.67-.68.13-1.36.28-2.05.45-.02,0-.03.03-.05.06Z"/><path class="cls-12" d="M444.62,951.05c.24-.02.48-.05.72-.06,4.31.11,8.46,1.49,12.67,2.44,4.24.96,8.26,1.03,12.44-.27.74-.23,3.73-1.03,3.6-2.26-.12-1.11-3-.56-3.64-.53-4.82.18-9.57.44-14.4.25-3.09-.12-6.21-.26-9.3-.08-.68.13-1.36.28-2.05.45-.02,0-.03.03-.05.06ZM447.69,950.85c3.54-.13,7.09.06,10.65.17,2.45.08,4.89.05,7.33-.08,1.34-.07,2.68-.16,4.02-.22.67-.03,1.34-.06,2.01-.07.34-.01,1.46-.07,1.47.45.04,1.38-8.55,3.91-16.45,1.67-2.96-.84-5.99-1.63-9.04-1.92Z"/><path class="cls-3" d="M457.87,945.79s-.04.05-.03.07c0,.03.04.05.08.04.16-.05.31-.1.47-.15.57-.18,1.14-.38,1.69-.58.1-.04.2-.07.3-.11.03,0,.05.01.07,0,6.13-2.06,12.86-.2,18.73-3.21,2.61-1.34,4.84-3.3,6.85-5.43.87-.92,4.1-3.42,3.18-4.97-.72-1.2-3.11-.61-4.11-.35-3.19.82-6.13,2.75-8.91,4.44-2.73,1.65-5.36,3.44-8.04,5.16-2.48,1.6-5.06,2.84-7.72,3.99-.84.36-1.7.72-2.56,1.08Z"/><path class="cls-12" d="M457.87,945.79s-.04.05-.03.07c.51-.18,1.01-.35,1.52-.52-.33.14-.65.27-.97.41.57-.18,1.14-.38,1.69-.58.28-.11.56-.23.85-.34,3.45-1.06,6.98-1.82,10.55-2.36,1.78-.27,3.43-.75,5.04-1.61,2.92-1.56,8.44-5.9,8.38-7.02-.06-1.19-2.04.16-2.54.41-3.97,2-7.65,4.49-11.74,6.28-2.75,1.2-5.51,2.37-8.28,3.54-.65.2-1.29.41-1.92.64-.84.36-1.7.72-2.56,1.08ZM484.41,933.87c.35.41-1.11,1.59-1.49,1.91-1.85,1.51-3.78,3-5.77,4.31-2.11,1.4-4.36,1.89-6.83,2.23-2.03.28-4.09.7-6.12,1.23,2.69-1.06,5.37-2.14,7.97-3.36,2.16-1.02,4.22-2.23,6.28-3.43,1.03-.6,2.06-1.19,3.12-1.75.29-.15,2.52-1.52,2.83-1.15"/><path class="cls-3" d="M414.92,955.85s0,.05.02.07c.02.02.05.02.08-.01.09-.12.18-.23.27-.34.33-.42.65-.85.95-1.28.05-.08.11-.16.17-.24.02,0,.04-.01.05-.03,3.47-4.6,9.36-6.63,12.16-11.81,1.25-2.3,1.89-4.87,2.3-7.44.17-1.11,1.29-4.58-.17-5.26-1.14-.52-2.59,1.12-3.2,1.82-1.93,2.21-3.12,5.12-4.32,7.76-1.18,2.59-2.21,5.23-3.31,7.85-1.02,2.43-2.29,4.64-3.67,6.83-.44.69-.88,1.39-1.34,2.08Z"/><path class="cls-12" d="M414.92,955.85s0,.05.02.07c.28-.39.57-.77.85-1.15-.17.27-.34.53-.51.79.33-.42.65-.85.95-1.28.15-.23.3-.45.45-.68,2-2.52,4.22-4.86,6.58-7.06,1.18-1.09,2.14-2.28,2.9-3.72,1.37-2.62,3.24-8.6,2.62-9.39-.65-.84-1.42,1.15-1.66,1.58-1.92,3.47-3.36,7.16-5.47,10.54-1.42,2.27-2.86,4.52-4.31,6.78-.38.47-.74.95-1.09,1.44-.44.69-.88,1.39-1.34,2.08ZM418.44,951c1.44-2.13,2.87-4.28,4.17-6.49,1.08-1.84,1.98-3.77,2.9-5.69.46-.96.92-1.92,1.41-2.86.13-.26,1.09-2.39,1.51-2.27.46.13-.01,1.73-.13,2.15-.6,2.04-1.27,4.11-2.07,6.08-.85,2.1-2.26,3.59-3.9,5.09-1.35,1.23-2.65,2.57-3.88,3.99Z"/><path class="cls-3" d="M412.19,959.75c.09.05.24.08.46.06,6.16.66,11.83,3.45,18.02,4.13,2.7.29,5.49.12,8.04-.89,1.09-.43,4.86-1.91,4.98-3.43.35-4.57-23.09-1.59-30.99-.25-.15,0-.26.01-.35.04-.26.07-.31.23-.15.33Z"/><path class="cls-12" d="M412.19,959.75c.49-.01.98-.03,1.48-.04,1.51.14,3.01.3,4.51.56,2.37.4,4.66,1.09,7,1.63,3.66.84,7.44.82,11.06-.2.78-.22,3.04-.72,3.17-1.81.11-1-1.61-.84-2.18-.86-8.13-.22-16.32.11-24.46.4-.14,0-.28,0-.42,0-.26.07-.31.23-.15.33ZM416.07,959.63c3.17-.08,6.34-.16,9.51-.21,2.48-.04,4.96-.08,7.44-.1,1.23-.01,2.45-.04,3.68-.03.48,0,2.36,0,2.23.61-.12.56-1.68,1.09-1.96,1.18-4.48,1.52-9.04,1.15-13.54-.02-2.43-.63-4.88-1.15-7.36-1.43Z"/><path class="cls-3" d="M459.1,928.84c-.08.05-.12.12-.13.19-.01.1.04.21.14.27.04.04.1.05.16.06.03.02.06.03.1.01,3.65-1.13,8.49-1.45,12.16-2.45,2.82-.77,5.46-2.06,7.93-3.62,2.73-1.72,5.37-3.76,7.6-6.1,1.07-1.12,3.79-3.65,3.38-5.49-.83-3.79-10.24,3.64-11.43,4.4-6.66,4.22-13.31,8.44-19.93,12.73Z"/><path class="cls-12" d="M458.98,929.03c-.01.1.04.21.14.27.25-.13.5-.27.74-.4,1.52-.63,3.04-1.26,4.6-1.81,2.54-.89,5.19-1.43,7.7-2.41,4.37-1.7,14.65-8.97,13.66-10.73-.52-.92-2.53.64-3.06.97-2.1,1.34-4.01,2.94-6.13,4.25-2.22,1.39-4.51,2.64-6.8,3.9-3.53,1.93-7.07,3.85-10.59,5.82-.09.04-.18.08-.27.12ZM462.21,927.64c3.13-1.7,6.25-3.43,9.38-5.15,2.16-1.19,4.31-2.41,6.37-3.75,1.15-.76,2.26-1.57,3.37-2.39.54-.4,1.08-.8,1.65-1.16.49-.31,2.41-1.67,2.5-.77.09.87-2.71,3.14-3.37,3.66-1.07.85-2.15,1.68-3.27,2.47-2.19,1.55-4.52,2.96-7.04,3.92-2.52.95-5.17,1.5-7.69,2.43-.63.24-1.27.48-1.9.73Z"/><path class="cls-3" d="M427.48,918.78c1.99,7.15,8.52,12.19,6.79,22.05-.01.04.03.06.06.05.02,0,.03,0,.03-.02.28-.94.52-1.9.73-2.86,1.13-5.2,1.26-10.74.34-15.93-.56-3.12-1.55-6.19-3.02-9.01-.75-1.44-2.21-4.87-3.85-5.29-3.54-.91-1.45,9.73-1.08,11.02Z"/><path class="cls-12" d="M429.27,915.92c0,4.46,2.4,8.57,3.73,12.72.91,2.86,1.57,5.81,1.75,8.79-.12,1.15-.26,2.29-.42,3.44.02,0,.03,0,.03-.02.28-.94.52-1.9.73-2.86,0-.06,0-.12,0-.18.39-3.1.36-6.29.09-9.33-.38-4.28-1.36-8.51-2.9-12.52-.27-.7-.91-3.45-2-3.39-1.05.06-.98,2.73-.98,3.35ZM430.37,913.02c.73.08,2.15,4.4,2.68,6.14,1.14,3.74,1.8,7.63,1.96,11.53.07,1.71.01,3.39-.11,5.06-.23-1.92-.63-3.83-1.17-5.7-1.12-3.9-3.12-7.6-3.9-11.58-.21-1.04-.31-2.11-.25-3.17.03-.42.12-2.36.79-2.29Z"/><path class="cls-3" d="M446.58,895.09c-1.5,2.22-2.76,4.62-3.71,7.13-1.85,4.91-2.44,10.08-1.91,15.28,0,.09.02.19.03.28-.08.25-.15.5-.21.75-.02.06-.03.11-.05.17,0,.02,0,.02,0,.04h0c.01.06.09.08.12,0,.14-.28.29-.56.44-.84,3.03-5.71,6.98-10.8,9.16-16.96.47-1.35,3.86-10.01.26-10.07-1.67-.03-3.38,3.08-4.14,4.21Z"/><path class="cls-12" d="M447.14,896.83c-2.01,3.45-3.03,7.73-4.07,11.56-.81,2.97-1.6,6.03-2.11,9.11-.05.25-.08.51-.12.76-.02.09-.04.18-.06.27-.02.07-.04.14-.05.21h0c.01.06.09.08.12,0,.14-.28.29-.56.44-.84.05-.24.1-.48.15-.72,1.18-3.35,2.83-6.47,4.48-9.64.89-1.71,1.74-3.43,2.46-5.21.69-1.72,1.52-3.52,1.82-5.36.13-.8.36-2.4-.87-2.39-1.03,0-1.78,1.52-2.2,2.25ZM449.87,896.72c-.34,2.18-1.37,4.41-2.24,6.43-.82,1.93-1.8,3.8-2.78,5.66-1.03,1.97-2.08,3.98-2.92,6.05.59-2.84,1.22-5.68,2.04-8.49.64-2.2,1.34-4.38,2.14-6.53.41-1.11.87-2.19,1.51-3.2.22-.36.45-.71.72-1.03.84-1.03,1.69.12,1.53,1.11Z"/><path class="cls-3" d="M489.58,898.21c-.07.08-.13.16-.2.25-.1.13,0,.27.12.3.07.02.14,0,.19-.07.12-.15.25-.3.37-.44h0c.1-.12.2-.24.3-.36.24-.16.48-.31.74-.45,2.71-1.53,6.35-2.13,9.15-3.19,2.55-.95,5.06-2.05,7.38-3.5,2.34-1.46,4.51-3.26,6.08-5.56.42-.62,1.59-2.13.97-2.96-.77-1.06-3.39.13-4.22.36-2.87.82-5.6,2.09-8.14,3.64-5.11,3.11-9.07,7.33-12.75,11.98Z"/><path class="cls-12" d="M490.63,897.3c-.37.28-.73.59-1.05.91-.07.08-.13.16-.2.25-.1.13,0,.27.12.3.05-.06.11-.11.16-.16.13-.11.27-.23.4-.34h0c.34-.28.68-.55,1.04-.81,1.24-.91,2.58-1.69,4.06-2.42,2.47-1.21,4.98-2.32,7.4-3.62,1.21-.65,10.55-5.67,8.82-7.49-.32-.35-.98,0-1.3.1-1.14.39-2.22,1.01-3.26,1.61-2.42,1.42-4.79,2.93-7.11,4.51-3.19,2.18-6.24,4.54-9.07,7.17ZM498.57,891.24c2.02-1.42,4.08-2.77,6.17-4.07,1.02-.63,2.04-1.27,3.1-1.85.52-.29,3.04-1.48,3.32-1.01.41.69-2.59,3.02-3.45,3.62-.98.69-1.99,1.33-3.02,1.94-2.07,1.23-4.23,2.31-6.4,3.35-1.92.92-4.11,1.82-6.08,3.01,2.03-1.78,4.16-3.43,6.36-4.99Z"/><path class="cls-3" d="M457.33,915.79c-.02.11-.03.21-.05.31-.02.16.13.24.25.2.07-.02.12-.07.13-.15.03-.19.07-.38.1-.57h0c.03-.16.05-.31.08-.46.13-.26.26-.51.41-.76,1.57-2.68,4.42-5.03,6.32-7.35,1.73-2.11,3.35-4.31,4.63-6.73,1.29-2.44,2.27-5.09,2.47-7.86.05-.75.3-2.64-.65-3.05-1.2-.53-2.87,1.81-3.47,2.43-2.07,2.15-3.79,4.61-5.22,7.23-2.86,5.26-4.17,10.9-5.02,16.76Z"/><path class="cls-12" d="M457.79,914.48c-.18.43-.33.87-.45,1.31-.02.11-.03.21-.05.31-.02.16.13.24.25.2.02-.08.04-.15.06-.22.06-.17.11-.33.17-.5h0c.15-.42.32-.82.49-1.22.62-1.41,1.38-2.76,2.3-4.13,1.53-2.28,3.14-4.51,4.58-6.85.72-1.17,6.28-10.2,3.87-10.9-.45-.14-.85.48-1.08.74-.79.91-1.42,1.98-2.01,3.03-1.38,2.44-2.68,4.94-3.89,7.47-1.67,3.48-3.12,7.06-4.25,10.75ZM461.61,905.26c1.03-2.24,2.14-4.44,3.3-6.61.56-1.06,1.13-2.13,1.75-3.15.31-.51,1.88-2.81,2.36-2.54.7.39-.73,3.91-1.17,4.87-.51,1.09-1.06,2.15-1.64,3.19-1.18,2.1-2.5,4.12-3.85,6.11-1.2,1.76-2.64,3.64-3.74,5.65.86-2.56,1.87-5.06,3-7.51Z"/><path class="cls-3" d="M442.79,913.23c-1.79,5.4-3.34,10.77-4.52,16.33-.91,4.29-1.83,8.64-3.69,12.63-2.22,4.77-6.23,9.28-10.91,12.56,2.16-.83,4.31-1.69,6.47-2.59,4.38-1.81,8.79-3.72,12.67-6.5.38-.27.75-.56,1.12-.85,0-.03,0-.07.03-.1,3.73-4.54,6.56-9.4,8.74-14.67.51-3.11.68-6.04.58-9.28-.1-3.2-.17-6.3.52-9.45.04-.18.31-.16.29.03-.48,4.39.58,9.43.32,14.1.22-.68.44-1.36.65-2.05,1.98-6.59,2.99-13.71,8.27-18.61.18-.16.39.12.23.29-5.51,5.65-6.02,14.71-8.46,21.87-1.81,5.33-4.3,10.79-8.03,15.12,2.31-2.25,4.41-4.73,6.47-7.21,12.44-14.97,25.42-29.55,41.49-40.71.16-.11.35.12.19.23-16.94,12.37-29.54,28.8-43.11,44.53-.15.18-.31.35-.47.53,2.67-1.63,5.71-2.81,8.55-3.69.14-.04.24.15.1.22-3.99,1.86-7.56,4.3-11.38,6.41-2.08,2.1-4.32,4.03-6.84,5.63-3.01,1.91-6.24,3.41-9.51,4.79,4.9-1.12,9.82-2.19,14.65-3.68,7.3-2.24,14.51-4.89,21.45-8.08.1-.05.17.11.07.16-7.1,3.66-14.37,6.87-22,9.32-6.44,2.07-13.24,4.06-20.03,4.7-7.79,3.14-15.93,6.13-24.24,7.09-.4.05-.47-.5-.09-.6,1.66-.43,3.29-.89,4.92-1.37,2.29-1.84,4.9-3.28,7.11-5.27,2.61-2.34,4.89-4.95,6.87-7.83.15-.21.45.01.32.23-2.41,4.08-6,8.78-10.31,11.65,2.36-.75,4.7-1.54,7.03-2.37,7.17-4.09,13.53-10.06,16.41-17.87,1.48-4.01,2.26-8.22,3.26-12.37,1.11-4.62,2.71-8.99,4.5-13.38.08-.19.36-.08.3.11Z"/><path class="cls-3" d="M241.22,880.49c1.63,2.35,2.28,5.61,2.88,8.35.69,3.14,1.11,6.33,1.36,9.54.24,2.98.32,5.98.36,8.96,0,.03,0,.06,0,.08,0,.2,0,.39,0,.59.03.23.06.47.09.71,0,.07-.04.13-.09.15-.07.03-.16.01-.18-.09-.02-.13-.04-.26-.06-.38-.93-5.38-5.23-9.38-6.79-14.54-.85-2.83-.92-5.87-1.12-8.8-.11-1.62-.57-3.64-.35-5.25.06-.43-.02-.85.36-1.17,1.17-.98,2.97,1.03,3.54,1.86Z"/><path class="cls-12" d="M240.49,882.77c-1.01-.46-1,1.55-1.02,2.11-.17,3.76.32,8.05,1.88,11.48,1.72,3.77,3.47,7.54,4.24,11.62,0,.14,0,.28-.01.42.02.12.04.26.06.38.02.1.1.12.18.09,0-.09-.01-.16-.03-.25.02-.4.02-.81.02-1.21,0-.03,0-.06,0-.08-.02-2.86-.45-5.75-.78-8.56-.47-3.98-1.11-7.97-2.44-11.76-.32-.92-.67-1.82-1.09-2.7-.2-.44-.53-1.33-1.02-1.55ZM241.57,884.99c.41.94.76,1.89,1.08,2.87,1.08,3.36,1.66,6.85,2.09,10.35.37,2.98.84,6.07.85,9.11-.41-2.32-1.17-4.57-2.09-6.76-.69-1.65-1.49-3.23-2.19-4.87-.8-1.85-1.09-3.8-1.31-5.79-.2-1.82-.47-3.79-.25-5.62.04-.37.23-1.22.54-1.25.54-.04,1.12,1.59,1.28,1.96Z"/><path class="cls-3" d="M228.19,926.89s0-.02-.01,0"/><path class="cls-3" d="M258.83,957.67c.08.03.1.08.1.14h0c0,.06-.03.11-.08.14-.03.01-.07.02-.11.01-3.65-.78-7.4-2.56-11.18-1.76-2.96.61-5.37,1.64-8.45,1.17-3.11-.47-6.17-1.67-8.81-3.36-1.21-.78-2.36-1.68-3.41-2.67-.5-.48-2.03-1.59-2.06-2.37-.15-3.62,11.6-.21,13.17.26,6.93,2.06,14.08,4.54,20.36,8.16.02.01.03.03.03.05,0,.02,0,.05-.02.07.15.05.31.11.47.17Z"/><path class="cls-12" d="M258.83,957.67c-.16-.06-.31-.11-.47-.17.02-.02.02-.04.02-.07-3.96-1.63-8.06-2.98-12.15-4.24-4.39-1.35-8.89-2.73-13.43-3.49-.62-.11-3.29-.88-3.54.14-.24.98,2.69,2.44,3.32,2.76,3.72,1.9,7.97,2.1,12.07,2.21,2.66.08,5.26.13,7.83.91,2.16.65,4.23,1.55,6.37,2.22.05-.02.08-.08.08-.13-1.1-.35-2.18-.77-3.26-1.18,1.09.39,2.18.78,3.26,1.17,0-.06-.02-.11-.1-.14ZM249.17,954.78c-4.07-.47-8.21-.05-12.24-.94-1.93-.42-3.83-1.11-5.49-2.2-.32-.21-1.84-1.1-1.7-1.65.1-.37,1.13-.33,1.29-.31,1.16.11,2.3.32,3.43.56,3.95.86,7.85,1.97,11.71,3.16,2.14.66,4.26,1.37,6.37,2.12-1.09-.34-2.21-.61-3.36-.74Z"/><path class="cls-3" d="M225.48,890.73c1.21,2.98,1.44,6.37,1.38,9.56-.14,7.38-2.23,14.76-1.55,22.15.03.29.06.58.09.87.16.35.09.27-.14-.13,0,0,0,0,0,0-1.01-1.75-4.99-9.58-5.75-15.76-.46-3.85-.11-7.7.25-11.55.21-2.19.4-4.39.62-6.58.07-.7-.07-2.62.86-3.01,1.8-.77,3.76,3.28,4.24,4.45Z"/><path class="cls-12" d="M222.39,892.2c-.38-.08-.61.11-.77.44-.18.38-.09.93-.08,1.32,0,.78,0,1.56.01,2.33.02,5.37-.37,10.97.51,16.29.58,3.52,1.69,6.96,3.1,10.26.03.11.06.22.09.34,0,0,0,0,0,0,.23.4.3.48.14.13-.03-.29-.07-.58-.09-.87-.1-.39-.19-.78-.27-1.17-.54-2.73-.46-5.5-.3-8.27.29-5.25.37-10.54-.36-15.76-.17-1.15-.36-2.35-.78-3.44-.19-.5-.58-1.48-1.2-1.61ZM223.27,893.71c.11.24.19.47.27.73.17.53.28,1.07.38,1.62.25,1.32.38,2.65.5,3.98.4,4.77.2,9.48,0,14.25-.1,2.35-.08,4.72.38,7.04-.69-1.86-1.3-3.75-1.8-5.65-1.27-4.91-1.13-9.91-1.16-14.93,0-1.24-.01-2.49-.02-3.73,0-.62,0-1.25-.01-1.87v-.93c-.02-.62-.17-.85.44-1.2.75-.43.74.06,1.03.71Z"/><path class="cls-3" d="M237.94,918.15c1.45,2.06,2.7,4.26,3.73,6.55,2.07,4.61,2.8,10.37,5.33,14.84.19.28.38.58.55.88.07.11.13.22.19.34.03.06-.06.12-.11.07-.15-.18-.31-.35-.47-.53,0,0,0,0,0,0-.08-.09-.17-.19-.25-.28-3.62-4.04-7.81-7.51-10.21-12.49-1.48-3.06-4.83-11.7-2.87-12.94.87-.55,3.22,2.33,4.1,3.58Z"/><path class="cls-12" d="M236.12,919.14c-.45.37-.16,1.37-.09,1.79.2,1.1.61,2.24.99,3.29.73,2.01,1.72,3.9,2.8,5.73,2.07,3.5,4.41,6.97,7.09,10.06.08.09.17.19.25.28,0,0,0,0,0,0,.16.18.31.35.47.53.04.05.14,0,.11-.07-.06-.11-.12-.22-.19-.34-2.66-3.7-4.45-7.86-6.16-12.1-.38-.95-3.74-10.48-5.27-9.19ZM238.76,922.67c.4.88.77,1.76,1.13,2.66.86,2.08,1.67,4.17,2.55,6.24.96,2.25,2.02,4.48,3.3,6.57-1.77-2.32-3.48-4.67-5.02-7.17-1-1.64-1.96-3.32-2.75-5.07-.43-.95-.81-1.93-1.1-2.93-.15-.48-1.09-3.21-.57-3.6.64-.49,2.29,2.92,2.46,3.31Z"/><path class="cls-3" d="M255.8,903.27c1.56,1.14,1.76,4.17,1.53,5.86-.34,2.42-1.55,4.57-3,6.49-2.1,2.8-4.64,5.2-6.19,8.38-1.54,3.15-1.03,2.19-1.72,5.89-.01.07-.07.09-.14.05-.1-.06-.21-.22-.24-.5,0-.03,0-.06,0-.09,0-5.78,1.66-10.77,4.22-15.96,1.46-2.94,1.92-6.31,3.48-9.18.58-1.07.98-1.71,2.06-.93Z"/><path class="cls-12" d="M255.3,906.45c-.9-.17-1.47,1.71-1.72,2.4-.73,2-1.44,3.99-2.53,5.83-.96,1.62-1.93,3.21-2.67,4.94-1.13,2.64-1.84,5.45-2.12,8.3-.1.49-.17,1-.22,1.51.03.28.14.44.24.5,0-.07,0-.13,0-.19.38-3.82,1.89-7.06,4.33-10.18,2.43-3.09,4.61-6.4,5.3-10.35.12-.7.21-2.62-.62-2.78ZM255.78,908.78c-.1.68-.25,1.34-.44,2-.34,1.19-.82,2.34-1.38,3.44-1.01,1.96-2.33,3.68-3.69,5.41-1.59,2.04-2.86,4.25-3.59,6.63.41-2.45,1.11-4.85,2.14-7.14.93-2.03,2.24-3.83,3.21-5.82.45-.92.81-1.88,1.17-2.83.19-.52.38-1.04.57-1.55.17-.46.67-2.07,1.28-2.11.79-.06.76,1.7.72,1.97Z"/><path class="cls-3" d="M202.65,902.69c6.2,4.14,12.15,8.64,17.92,13.36.08.06.09.15.06.22,0,.02,0,.03-.01.04.04.03.08.06.11.09.04.04.03.08,0,.12,0,0-.01.01-.02.02,0,0,0,0,0,0-.03.01-.06.01-.09,0-3.75-2.14-7.28-4.13-11.54-5.08-3.9-.86-7.67-1.44-11.31-3.16-3.11-1.48-13.13-10.18-12.62-13.02.34-1.91,12.57,4.1,17.51,7.39Z"/><path class="cls-12" d="M195.78,900.64c-.78-.44-3.24-2.33-4.28-1.54-1.04.79,1.45,2.7,1.93,3.11,1.77,1.52,3.6,2.99,5.64,4.14,2.03,1.15,4.22,1.68,6.41,2.42,5.38,1.82,10.47,4.7,15.22,7.78,0,0,0,0,0,0,0,0,.01-.01.02-.02.03-.03.03-.08,0-.12-.03-.03-.07-.06-.11-.09,0-.01.01-.03.01-.04-7.75-5.99-16.34-10.84-24.85-15.63ZM220.17,916.15c-3.25-2.15-6.69-4.11-10.22-5.77-4.12-1.93-8.67-2.68-12.47-5.27-1.81-1.23-3.78-2.64-5.22-4.3-.2-.22-.9-.96-.67-1.38.2-.38,1.13-.22,2.4.45,1.06.56,2.09,1.18,3.13,1.77,4.1,2.33,8.19,4.67,12.19,7.16,3.71,2.31,7.33,4.75,10.85,7.33Z"/><path class="cls-3" d="M232.98,937.02s.01.05,0,.08c0,.07-.06.13-.14.12-.16-.01-.33-.02-.49-.02,0,.01-.02.02-.04.02-3.54.46-6.16,1.77-9.23,3.48-2.28,1.27-4.79,1.89-7.4,1.94-2.83.05-5.66-.54-8.35-1.4-1.1-.35-4.46-.91-4.4-2.69.09-2.92,10.14-1.8,11.85-1.7,3.06.17,6.08.24,9.14.04,3-.2,5.99-.48,8.97.05.05,0,.07.04.08.08Z"/><path class="cls-12" d="M231.06,937.08s0,0,0,0c-1.75.06-3.52.05-5.26.2-1.95.16-3.85.71-5.81.88-3.67.32-7.34-.08-11.01.06-.48.02-1.42.08-.97.79.19.31.74.45,1.04.57.91.35,1.86.6,2.82.79,3.25.62,6.87.74,10.06-.26,3.7-1.16,7.15-2.82,11.05-3,0-.03,0-.06,0-.08-.64-.03-1.29,0-1.92.06ZM223.02,939.44c-3.96,1.39-8.44,1.44-12.5.33-.38-.11-1.4-.44-1.77-.61-.35-.17-.91-.57.23-.72.27-.04.54-.01.81-.02.95-.01,1.91,0,2.87.02,2.04.04,4.08.11,6.12,0,1.82-.09,3.57-.4,5.36-.75,2.15-.43,4.35-.48,6.54-.58-2.63.36-5.17,1.45-7.66,2.32Z"/><path class="cls-3" d="M221.17,932.2s.05.1.04.16c0,.03,0,.06,0,.09,0,.04-.02.07-.04.1,0,.01,0,.02-.02.03-.05.06-.13.1-.24.09-.56-.05-1.11-.15-1.63-.28-6.23-.67-12.64-1.42-18.3-4.2-2.89-1.42-5.56-3.27-8-5.36-1.2-1.03-4.28-3.03-3.96-5,.31-1.91,2.17-1.24,3.42-.8,3.23,1.13,6.44,2.38,9.51,3.9,3.06,1.51,5.89,3.32,8.54,5.46,3.15,2.55,6.24,5.25,10.44,5.67.12.01.2.07.24.15Z"/><path class="cls-12" d="M208.6,926.95c-4.07-2.55-8.43-4.72-12.83-6.65-.57-.25-2.19-.86-2.12.28.09,1.35,2.38,2.36,3.3,2.93,3.51,2.17,7.16,4.14,10.98,5.71,4.27,1.75,8.67,2.91,13.26,3.22,0-.03.01-.06,0-.09-7.53-.74-14.65-3.63-21.18-7.34-1.57-.9-3.16-1.8-4.66-2.83-.24-.16-1.67-1.32-1.36-1.82.27-.44,2.05.34,2.27.45,1.01.46,2.01.93,3.01,1.41,3.78,1.81,7.36,3.84,10.92,6.04,3.43,2.11,7.03,3.51,10.99,4.09,0-.06-.02-.11-.04-.16-4.64-.73-8.6-2.77-12.57-5.25Z"/><path class="cls-3" d="M195.22,876.03c2.6,2.11,4.98,4.42,6.71,7.31,2.64,4.42,3.88,9.44,5.86,14.16,0,.02.02.04.02.05.53,1.28,1.13,2.53,1.82,3.75.14.26.29.52.45.77.04.06.04.13.02.18-.02.04-.05.07-.1.09-.03.02-.08.03-.12.03h0c-.06,0-.12-.04-.17-.1-.24-.36-.47-.72-.69-1.09-.03,0-.05,0-.07-.04-4.54-5.34-9.48-10.64-14.39-15.81-2.17-2.29-4.27-4.7-5.98-7.36-1.01-1.57-2.4-4.05-1.56-5.97.05-.12.14-.25.29-.27,2.89-.26,5.86,2.63,7.92,4.3Z"/><path class="cls-12" d="M192.27,877.22c-1.44-.08-.75,1.42-.33,2.15,1.12,1.95,2.61,3.75,3.96,5.56,1.53,2.03,3.09,4.05,4.67,6.04,3,3.75,6.73,7.29,9.3,11.37,0,0,0,.01.01.02h0s.09,0,.12-.02c.04-.02.07-.05.1-.09-.16-.32-.31-.63-.47-.95-.61-1.25-1.21-2.5-1.82-3.75,0-.02-.02-.03-.02-.05-2.92-6.01-5.96-11.93-10.82-16.87-1.13-1.15-2.94-3.32-4.7-3.41ZM197.69,881.72c2.94,3.16,5.3,6.73,7.27,10.5,1.57,3.01,2.92,6.13,4.43,9.17-1.6-2.34-3.6-4.44-5.42-6.63-2.86-3.45-5.63-6.96-8.3-10.55-.65-.86-1.28-1.73-1.91-2.6-.56-.77-1.63-1.93-1.88-2.87-.49-1.82,1.36-.99,2-.58.56.36,1.04.82,1.52,1.26.8.73,1.56,1.5,2.29,2.29Z"/><path class="cls-3" d="M244.32,898.34c.75,6.23,1.13,12.33,1.04,18.6-.08,5.71-.23,11.43.5,17.11.96,7.54,3.73,15.35,9.11,20.71-8.1-5.55-15.15-12.59-21.08-20.6-9.95-13.45-19.44-27.48-30.53-40.04-.18-.21-.47.07-.31.28,5.06,7.12,10.59,13.91,15.72,20.99,5.09,7.03,9.99,14.22,15.21,21.15.56.75,1.14,1.49,1.72,2.21-6.16-4.53-14.08-6.97-21.4-7.67-.09,0-.09.13,0,.14,5.3.84,10.4,2.66,15.13,5.16,4.13,2.19,7.6,5.07,11.22,7.96,8.89,9.17,19.69,15.88,32.21,19.7.13.04.19-.16.06-.2-5.04-1.75-9.8-4.02-14.27-6.73-8.06-6.33-11.12-16.81-11.87-26.87-.39-5.28-.36-10.56-.48-15.85-.12-5.36-.19-10.96-1.69-16.14-.05-.18-.31-.12-.29.06Z"/></g><g id="Cage"><rect class="cls-1" x="283.83" y="626.32" width="3" height="201.47"/><rect class="cls-1" x="331.12" y="626.32" width="3" height="201.47"/><rect class="cls-6" x="279.1" y="821.61" width="59.75" height="11.47"/><rect class="cls-14" x="279.1" y="821.61" width="59.75" height="11.47"/><path class="cls-6" d="M415.08,947.91h-212.2v-229.05c0-56.06,44.62-96.75,106.1-96.75s106.1,40.69,106.1,96.75v47.08h-6v-47.08c0-26.46-10.09-49.27-29.17-65.97-18.27-15.98-43.46-24.78-70.93-24.78s-52.66,8.8-70.93,24.78c-19.08,16.69-29.17,39.5-29.17,65.97v223.05h200.2v-57.42h6v63.42Z"/><path class="cls-6" d="M241.71,944.91h-6v-226.05c0-56.06,30.81-96.75,73.27-96.75v6c-38.98,0-67.27,38.16-67.27,90.75v226.05Z"/><path class="cls-6" d="M276.84,944.91h-6v-237.28c0-51.17,20.72-72.96,36.31-84.9l3.65,4.76c-14.58,11.17-33.96,31.62-33.96,80.14v237.28Z"/><path class="cls-6" d="M347.11,944.91h-6v-237.28c0-48.52-19.38-68.97-33.96-80.14l3.65-4.76c15.59,11.94,36.31,33.73,36.31,84.9v237.28Z"/><path class="cls-6" d="M382.76,944.91h-6v-226.05c0-52.58-28.29-90.75-67.27-90.75v-6c42.46,0,73.27,40.69,73.27,96.75v226.05Z"/><rect class="cls-6" x="305.98" y="615.03" width="6" height="329.88"/><path class="cls-6" d="M308.98,616.08c-6.97,0-12.64-5.67-12.64-12.64s5.67-12.64,12.64-12.64,12.64,5.67,12.64,12.64-5.67,12.64-12.64,12.64ZM308.98,596.8c-3.66,0-6.64,2.98-6.64,6.64s2.98,6.64,6.64,6.64,6.64-2.98,6.64-6.64-2.98-6.64-6.64-6.64Z"/><rect class="cls-6" x="210.33" y="686.66" width="198.12" height="6"/><rect class="cls-6" x="205.88" y="888.86" width="206.2" height="6"/><path class="cls-6" d="M434.63,795.01c-6.26,0-11.92-1.7-16.31-5.01-4.22-3.18-9.24-9.35-9.24-20.74v-31.42h6v31.42c0,7.06,2.37,12.57,6.85,15.95,5.33,4.02,13.35,4.9,22.01,2.42l1.65,5.77c-3.76,1.08-7.45,1.61-10.96,1.61Z"/><path class="cls-6" d="M415.08,925.09h-6v-45.43c0-7,3.41-14.17,9.61-20.18,6.04-5.86,13.58-9.35,19.64-9.2l-.18,6c-4.36-.13-10.51,2.88-15.28,7.51-4.95,4.8-7.79,10.59-7.79,15.88v45.43Z"/><path class="cls-6" d="M434.94,775.91l-2.8-5.31c5.84-3.08,13.98-12.62,16.14-18.92l5.68,1.95c-2.63,7.69-11.87,18.51-19.01,22.28Z"/><path class="cls-6" d="M483.2,854.28c-5.57-3.54-17.89-5.87-24.43-4.62l-1.13-5.89c7.98-1.53,21.96,1.12,28.78,5.45l-3.22,5.06Z"/><path class="cls-6" d="M455.56,880.19c-3.54-4.85-9.41-9.19-15.33-11.32l2.03-5.65c7.09,2.55,13.87,7.57,18.14,13.43l-4.85,3.54Z"/><path class="cls-6" d="M493.22,877.24c-3.54-4.85-9.41-9.19-15.33-11.32l2.03-5.65c7.09,2.55,13.87,7.57,18.14,13.43l-4.85,3.54Z"/><path class="cls-6" d="M457.27,791.7l1.66-5.77c5.77,1.66,13.07,1.47,19.04-.48l1.87,5.7c-7.16,2.34-15.6,2.55-22.56.55Z"/><g class="cls-15"><path class="cls-4" d="M415.08,947.91h-212.2v-229.05c0-56.06,44.62-96.75,106.1-96.75s106.1,40.69,106.1,96.75v47.08h-6v-47.08c0-26.46-10.09-49.27-29.17-65.97-18.27-15.98-43.46-24.78-70.93-24.78s-52.66,8.8-70.93,24.78c-19.08,16.69-29.17,39.5-29.17,65.97v223.05h200.2v-57.42h6v63.42Z"/><path class="cls-4" d="M241.71,944.91h-6v-226.05c0-56.06,30.81-96.75,73.27-96.75v6c-38.98,0-67.27,38.16-67.27,90.75v226.05Z"/><path class="cls-4" d="M276.84,944.91h-6v-237.28c0-51.17,20.72-72.96,36.31-84.9l3.65,4.76c-14.58,11.17-33.96,31.62-33.96,80.14v237.28Z"/><path class="cls-4" d="M347.11,944.91h-6v-237.28c0-48.52-19.38-68.97-33.96-80.14l3.65-4.76c15.59,11.94,36.31,33.73,36.31,84.9v237.28Z"/><path class="cls-4" d="M382.76,944.91h-6v-226.05c0-52.58-28.29-90.75-67.27-90.75v-6c42.46,0,73.27,40.69,73.27,96.75v226.05Z"/><rect class="cls-4" x="305.98" y="615.03" width="6" height="329.88"/><path class="cls-4" d="M308.98,616.08c-6.97,0-12.64-5.67-12.64-12.64s5.67-12.64,12.64-12.64,12.64,5.67,12.64,12.64-5.67,12.64-12.64,12.64ZM308.98,596.8c-3.66,0-6.64,2.98-6.64,6.64s2.98,6.64,6.64,6.64,6.64-2.98,6.64-6.64-2.98-6.64-6.64-6.64Z"/><rect class="cls-4" x="210.33" y="686.66" width="198.12" height="6"/><rect class="cls-4" x="205.88" y="888.86" width="206.2" height="6"/><path class="cls-4" d="M434.63,795.01c-6.26,0-11.92-1.7-16.31-5.01-4.22-3.18-9.24-9.35-9.24-20.74v-31.42h6v31.42c0,7.06,2.37,12.57,6.85,15.95,5.33,4.02,13.35,4.9,22.01,2.42l1.65,5.77c-3.76,1.08-7.45,1.61-10.96,1.61Z"/><path class="cls-4" d="M415.08,925.09h-6v-45.43c0-7,3.41-14.17,9.61-20.18,6.04-5.86,13.58-9.35,19.64-9.2l-.18,6c-4.36-.13-10.51,2.88-15.28,7.51-4.95,4.8-7.79,10.59-7.79,15.88v45.43Z"/><path class="cls-4" d="M434.94,775.91l-2.8-5.31c5.84-3.08,13.98-12.62,16.14-18.92l5.68,1.95c-2.63,7.69-11.87,18.51-19.01,22.28Z"/><path class="cls-4" d="M483.2,854.28c-5.57-3.54-17.89-5.87-24.43-4.62l-1.13-5.89c7.98-1.53,21.96,1.12,28.78,5.45l-3.22,5.06Z"/><path class="cls-4" d="M455.56,880.19c-3.54-4.85-9.41-9.19-15.33-11.32l2.03-5.65c7.09,2.55,13.87,7.57,18.14,13.43l-4.85,3.54Z"/><path class="cls-4" d="M493.22,877.24c-3.54-4.85-9.41-9.19-15.33-11.32l2.03-5.65c7.09,2.55,13.87,7.57,18.14,13.43l-4.85,3.54Z"/><path class="cls-4" d="M457.27,791.7l1.66-5.77c5.77,1.66,13.07,1.47,19.04-.48l1.87,5.7c-7.16,2.34-15.6,2.55-22.56.55Z"/></g><polygon class="cls-14" points="415.08 916.54 415.08 947.92 202.88 947.92 202.88 910.65 208.88 910.82 208.88 941.92 235.71 941.92 235.71 911.56 241.71 911.73 241.71 941.92 270.84 941.92 270.84 912.54 276.84 912.7 276.84 941.92 305.98 941.92 305.98 913.51 311.98 913.68 311.98 941.92 341.11 941.92 341.11 914.49 347.11 914.65 347.11 941.92 376.76 941.92 376.76 915.48 382.76 915.64 382.76 941.92 409.08 941.92 409.08 916.37 415.08 916.54"/><rect class="cls-6" x="196.77" y="920.38" width="224.42" height="43.68"/><rect class="cls-13" x="196.77" y="920.38" width="224.42" height="43.68"/><rect class="cls-5" x="328.27" y="920.38" width="56.77" height="43.68"/><rect class="cls-5" x="354.62" y="920.38" width="21.39" height="43.68"/></g><g id="Bird"><path class="cls-6" d="M731.32,737.67c-.76-.95-2.03-1.5-3.24-1.46-1.43.05-2.38.84-3.42,1.72-.17.15-.19.37-.1.54,0,.17.14.31.35.29,1.3-.14,2.28.5,2.44,1.83.14,1.1-.57,1.97-.93,2.95-.09.25.19.48.42.37,1.48-.73,2.76-3.2,2.02-4.78-.02-.05-.05-.09-.08-.14.16.09.31.18.45.3,1.33,1.15.74,3.14.33,4.55-.08.26.21.58.48.41,1.85-1.12,2.63-4.87,1.27-6.58Z"/><path class="cls-6" d="M697.63,709.82l-34.63-108.57s46.08,9.03,61,38.46c14.93,29.44,2.87,64.62,2.87,64.62l-29.25,5.48Z"/><path class="cls-11" d="M697.63,709.82l-34.63-108.57s46.08,9.03,61,38.46c14.93,29.44,2.87,64.62,2.87,64.62l-29.25,5.48Z"/><path class="cls-6" d="M663.02,601.27s0,.02.01.05l-.02-.06h.01Z"/><path class="cls-6" d="M726.88,704.35l-29.25,5.47-34.57-108.44c1.33,3.39,29.82,75.73,46.3,80.93,16.61,5.25,20.13-25.77,20.23-26.75,5.48,24.89-2.71,48.79-2.71,48.79Z"/><path class="cls-6" d="M666.71,732.51l44.36-49.54s3.97-23.2,23.4-23.2c19.7,0,21.82,21.07,20.41,30.5,0,0-1.52,72.37-86.92,52.96l-45.05,16.64s3.74-8.04,11.92-11.92c0,0-15.11.28-24.26-3.74l56.15-11.69Z"/><path class="cls-9" d="M666.71,732.51l44.36-49.54s3.97-23.2,23.4-23.2c19.7,0,21.82,21.07,20.41,30.5,0,0-1.52,72.37-86.92,52.96l-45.05,16.64s3.74-8.04,11.92-11.92c0,0-15.11.28-24.26-3.74l56.15-11.69Z"/><path class="cls-7" d="M754.87,690.27s-1.53,72.37-86.92,52.96l-45.05,16.63s3.75-8.04,11.93-11.93c0,0-15.12.28-24.27-3.74,38.75,7.55,56.7-8,56.7-8,85.4,19.41,87.62-54.59,87.62-54.59.03-.25.08-.52.1-.8.4,3.57.28,6.93-.1,9.46Z"/><path class="cls-6" d="M712.62,692.21l-99.22-56.04s-1.38,52.14,24.4,72.75c25.77,20.61,63.5,10.81,63.5,10.81l11.33-27.52Z"/><path class="cls-9" d="M712.62,692.21l-99.22-56.04s-1.38,52.14,24.4,72.75c25.77,20.61,63.5,10.81,63.5,10.81l11.33-27.52Z"/><path class="cls-6" d="M676.14,721.98s12.83.93,25.15-2.25c0,0-12.61,4.88-25.15,2.25Z"/><path class="cls-6" d="M706.1,688.53l6.52,3.68s-1.34-2.33-6.52-3.68Z"/><path class="cls-6" d="M616.69,650.48c28.05,14.17,55.41,29.59,82.4,45.67,0,0,.38.23.38.23l-.05.41c-.67,5.69-1.38,11.37-2.18,17.04.22-5.72.53-11.44.87-17.16,0,0,.33.63.33.63-27.74-14.75-55.09-30.17-81.75-46.81h0Z"/><path class="cls-6" d="M624.18,664.97c25.01,11.34,49.85,23.45,74.19,36.19-25.02-11.34-49.85-23.45-74.19-36.19h0Z"/><path class="cls-6" d="M628.03,675.92c23.55,9.33,46.95,19.45,69.9,30.21-23.56-9.34-46.96-19.45-69.9-30.21h0Z"/><path class="cls-6" d="M633.41,688.53c21.47,6.34,42.84,13.48,63.83,21.3-21.48-6.35-42.85-13.48-63.83-21.3h0Z"/><path class="cls-1" d="M732.33,679.23c0,1.18,1.24,3.08,3.71,3.08s3.59-2.18,3.59-3.08c0-1.45-1.46-3.31-3.65-3.31s-3.65,1.87-3.65,3.31Z"/><path class="cls-6" d="M732.33,679.23s-13.22-4.02-13.22.19,13.22-.19,13.22-.19Z"/><path class="cls-6" d="M739.63,679.02s6.1-2.75,6.1.13-6.1-.13-6.1-.13Z"/><polygon class="cls-6" points="745.73 678.73 752.36 670.98 765.04 676.69 745.73 678.73"/><polygon class="cls-6" points="745.73 678.73 753.78 681.01 757.87 677.45 745.73 678.73"/><path class="cls-6" d="M720.95,737.91c-.76-.95-2.03-1.5-3.24-1.46-1.43.05-2.38.84-3.42,1.72-.17.15-.19.37-.1.54,0,.17.14.31.35.29,1.3-.14,2.28.5,2.44,1.83.14,1.1-.57,1.97-.93,2.95-.09.25.19.48.42.37,1.48-.73,2.76-3.2,2.02-4.78-.02-.05-.05-.09-.08-.14.16.09.31.18.45.3,1.33,1.15.74,3.14.33,4.55-.08.26.21.58.48.41,1.85-1.12,2.63-4.87,1.27-6.58Z"/></g><g id="Table"><path class="cls-8" d="M193.12,963.77c122.67-.61,260.28-.62,382.95,0-122.67.62-260.28.61-382.95,0h0Z"/></g></svg>